<?xml version="1.0" encoding="utf-8"?>
<!-- Generator: Adobe Illustrator 27.5.0, SVG Export Plug-In . SVG Version: 6.00 Build 0)  -->
<svg version="1.1" xmlns="http://www.w3.org/2000/svg" xmlns:xlink="http://www.w3.org/1999/xlink" x="0px" y="0px"
	 viewBox="0 0 500 500" style="enable-background:new 0 0 500 500;" xml:space="preserve">
<g id="BACKGROUND">
	<rect id="XMLID_1253_" style="fill:#FFFFFF;" width="500" height="500"/>
</g>
<g id="OBJECTS">
	<g id="XMLID_9_">
		
			<path id="XMLID_478_" style="fill:none;stroke:#231F20;stroke-width:2;stroke-linecap:round;stroke-linejoin:round;stroke-miterlimit:10;" d="
			M110.599,231.804c0,0,14.099,37.104,28.199,62.334c14.099,25.23,11.131,23.746,7.421,51.203
			c-3.71,27.457-3.339,31.909-8.905,43.04c0,0-18.181,1.855-14.841,18.552"/>
		
			<path id="XMLID_477_" style="fill:none;stroke:#231F20;stroke-width:2;stroke-linecap:round;stroke-linejoin:round;stroke-miterlimit:10;" d="
			M180.074,169.288c0,0-1.669,5.007-14.191,9.455c-12.521,4.456-29.779-8.345-50.094-18.638
			c-7.854-3.982-12.589-7.591-15.571-11.505c-2.372-3.101-3.634-6.405-4.473-10.234c-0.839-3.804-1.271-8.141-1.957-13.326
			c-2.253-16.978,0-25.89,0-25.89"/>
		
			<path id="XMLID_476_" style="fill:none;stroke:#231F20;stroke-width:2;stroke-linecap:round;stroke-linejoin:round;stroke-miterlimit:10;" d="
			M178.127,152.613c-2.258-0.377-4.267-0.21-7.421-0.024c-3.154,0.186-5.937-0.742-5.937-0.742s-1.114,0.498,0.686,2.298
			c1.8,1.8,3.071,3.177,3.918,5.189c0.847,2.012,3.071,2.012,3.071,2.012s0.847,1.271,2.436-1.377
			c1.588-2.648,3.712-4.977,4.342-5.825C179.853,153.297,179.38,152.822,178.127,152.613z"/>
		<path id="XMLID_475_" style="fill:none;stroke:#231F20;stroke-linecap:round;stroke-linejoin:round;stroke-miterlimit:10;" d="
			M172.869,157.639c0,0,0.741,1.589-0.424,3.706"/>
		<path id="XMLID_474_" style="fill:none;stroke:#231F20;stroke-linecap:round;stroke-linejoin:round;stroke-miterlimit:10;" d="
			M164.501,152.817c0,0,2.755,1.927,4.485,2.35c1.73,0.424,2.153,1.694,1.306,2.33"/>
		
			<path id="XMLID_473_" style="fill:none;stroke:#231F20;stroke-width:2;stroke-linecap:round;stroke-linejoin:round;stroke-miterlimit:10;" d="
			M185.965,153.756c0,0,4.377,6.072-1.977,11.155c-6.354,5.083-13.274,0.847-13.274,0.847c-9.53,4.871-14.825-1.412-14.825-1.412
			s-4.448-4.603-1.2-11.021"/>
		
			<path id="XMLID_472_" style="fill:none;stroke:#231F20;stroke-width:2;stroke-linecap:round;stroke-linejoin:round;stroke-miterlimit:10;" d="
			M170.714,165.758c0,0,0.865,0.194,1.731-3.777"/>
		<path id="XMLID_471_" style="fill:none;stroke:#231F20;stroke-linecap:round;stroke-linejoin:round;stroke-miterlimit:10;" d="
			M167.185,168.935c0,0,3.106,2.189,6.707,0"/>
		<path id="XMLID_470_" style="fill:none;stroke:#231F20;stroke-linecap:round;stroke-linejoin:round;stroke-miterlimit:10;" d="
			M159.987,142.033c-0.483-3.253-1.355-9.7-4.431-14.656c-1.449-2.347-3.397-4.355-6.024-5.532
			c-3.668-1.644-7.142-1.245-9.853-0.305c-3.338,1.152-5.532,3.126-5.532,3.126"/>
		<path id="XMLID_469_" style="fill:none;stroke:#231F20;stroke-linecap:round;stroke-linejoin:round;stroke-miterlimit:10;" d="
			M196.128,125.378c0,0-2.109-1.677-5.846-1.982c-1.889-0.153-4.194,0.042-6.862,0.991c-3.414,1.22-4.931,4.304-5.549,7.421
			c-0.822,4.1-0.093,8.252-0.093,8.252"/>
		<path id="XMLID_468_" style="fill:none;stroke:#231F20;stroke-linecap:round;stroke-linejoin:round;stroke-miterlimit:10;" d="
			M137.621,122.404c-0.39,0.203-2.88,8.76,5.913,13.098c5.007,2.474,10.519-0.384,13.583-5.085"/>
		<path id="XMLID_467_" style="fill:none;stroke:#231F20;stroke-linecap:round;stroke-linejoin:round;stroke-miterlimit:10;" d="
			M191.226,123.503c0,0,3.141,4.272-0.778,9.038c-3.918,4.766-11.864,3.601-12.868,1.271"/>
		<path id="XMLID_466_" style="fill:#231F20;stroke:#231F20;stroke-linecap:round;stroke-linejoin:round;stroke-miterlimit:10;" d="
			M149.533,121.845c-2.784-1.247-5.454-1.316-7.765-0.867c0.855,0.289,1.474,1.088,1.474,2.04c0,1.194-0.968,2.162-2.162,2.162
			c-0.956,0-1.758-0.625-2.043-1.485c-0.07,0.438-0.119,0.884-0.119,1.344c0,4.685,3.795,8.489,8.48,8.489
			c3.88,0,7.15-2.601,8.158-6.151C154.108,125.03,152.159,123.022,149.533,121.845z"/>
		<path id="XMLID_465_" style="fill:#231F20;stroke:#231F20;stroke-linecap:round;stroke-linejoin:round;stroke-miterlimit:10;" d="
			M190.283,123.395c-1.889-0.153-4.194,0.042-6.862,0.991c-1.104,0.395-1.992,0.999-2.733,1.721
			c0.042-0.003,0.081-0.012,0.123-0.012c0.987,0,1.788,0.8,1.788,1.787s-0.8,1.788-1.788,1.788c-0.848,0-1.555-0.593-1.738-1.386
			c-0.575,1.098-0.96,2.306-1.201,3.523c1.339,1.076,3.041,1.72,4.897,1.72c4.338,0,7.854-3.516,7.854-7.854
			C190.622,124.886,190.503,124.115,190.283,123.395z"/>
		<path id="XMLID_464_" style="fill:none;stroke:#231F20;stroke-linecap:round;stroke-linejoin:round;stroke-miterlimit:10;" d="
			M108.164,168.935c0,0,19.062-21.977,50.196-13.777"/>
		<path id="XMLID_463_" style="fill:none;stroke:#231F20;stroke-linecap:round;stroke-linejoin:round;stroke-miterlimit:10;" d="
			M182.294,155.158c0,0,21.039-7.264,47.725,16.887"/>
		
			<path id="XMLID_462_" style="fill:none;stroke:#231F20;stroke-width:2;stroke-linecap:round;stroke-linejoin:round;stroke-miterlimit:10;" d="
			M190.622,152.344c0,0,4.522-2.941,7.051-8.9"/>
		<path id="XMLID_461_" style="fill:none;stroke:#231F20;stroke-linecap:round;stroke-linejoin:round;stroke-miterlimit:10;" d="
			M112.001,178.337c0,0,12.99-24.594,48.855-20.164"/>
		<path id="XMLID_460_" style="fill:none;stroke:#231F20;stroke-linecap:round;stroke-linejoin:round;stroke-miterlimit:10;" d="
			M121.296,182.56c0,0,15.864-24.639,39.56-20.58"/>
		<path id="XMLID_459_" style="fill:none;stroke:#231F20;stroke-linecap:round;stroke-linejoin:round;stroke-miterlimit:10;" d="
			M180.075,158.415c0,0,25.375-6.636,48.673,22.592"/>
		<path id="XMLID_458_" style="fill:none;stroke:#231F20;stroke-linecap:round;stroke-linejoin:round;stroke-miterlimit:10;" d="
			M182.294,161.529c0,0,20.897-0.996,32.476,21.031"/>
		<path id="XMLID_457_" style="fill:#231F20;stroke:#231F20;stroke-linecap:round;stroke-linejoin:round;stroke-miterlimit:10;" d="
			M141.069,146.193c-0.373-0.119-9.404-3.101-19.774,0.008c-8.175,2.448-14.453,5.905-21.078,2.398
			c-2.372-3.101-3.634-6.405-4.473-10.234c2.762,2.686,7.167,5.405,13.479,5.075c12.072-0.627,13.131-2.821,20.968-1.406
			C137.782,143.406,140.883,146.032,141.069,146.193z"/>
		<path id="XMLID_456_" style="fill:#231F20;stroke:#231F20;stroke-linecap:round;stroke-linejoin:round;stroke-miterlimit:10;" d="
			M199.102,140.22c-0.025,0.068-0.051,0.127-0.076,0.195c-0.356,0.889-0.729,1.737-1.11,2.525c-2.101-0.466-5.219-0.517-9.836,0.5
			C188.08,143.44,192.841,139.712,199.102,140.22z"/>
		<path id="XMLID_455_" style="fill:#231F20;stroke:#231F20;stroke-linecap:round;stroke-linejoin:round;stroke-miterlimit:10;" d="
			M154.285,109.894c0,0,3.581,6.303,2.804,13.455C157.09,123.349,162.503,114.979,154.285,109.894z"/>
		<path id="XMLID_454_" style="fill:#231F20;stroke:#231F20;stroke-linecap:round;stroke-linejoin:round;stroke-miterlimit:10;" d="
			M179.857,112.384c0,0,2.073,5.41,0.602,10.967C180.458,123.351,185.739,117.387,179.857,112.384z"/>
		<path id="XMLID_453_" style="fill:#231F20;stroke:#231F20;stroke-linecap:round;stroke-linejoin:round;stroke-miterlimit:10;" d="
			M155.164,91.797c0,0,8.937,11.785,8.809,27.632C163.973,119.428,169.912,101.835,155.164,91.797z"/>
		<path id="XMLID_452_" style="fill:#231F20;stroke:#231F20;stroke-linecap:round;stroke-linejoin:round;stroke-miterlimit:10;" d="
			M164.044,94.816c0,0,7.113,10.895,6.02,24.793C170.065,119.61,176.365,104.538,164.044,94.816z"/>
		<path id="XMLID_451_" style="fill:#231F20;stroke:#231F20;stroke-linecap:round;stroke-linejoin:round;stroke-miterlimit:10;" d="
			M167.478,88.52c0,0,7.601,11.074,7.137,25.582C174.615,114.103,180.231,98.177,167.478,88.52z"/>
		
			<path id="XMLID_450_" style="fill:none;stroke:#231F20;stroke-width:2;stroke-linecap:round;stroke-linejoin:round;stroke-miterlimit:10;" d="
			M99.1,87.839c0,0-1.287,4.778-0.395,9.579c0.748,4.026,4.801,4.377,4.236,7.06c-0.565,2.683-6.213,6.214-4.942,12.144"/>
		
			<path id="XMLID_449_" style="fill:none;stroke:#231F20;stroke-width:2;stroke-linecap:round;stroke-linejoin:round;stroke-miterlimit:10;" d="
			M103.794,66.63c0,0-6.078,12.486,2.676,25.167c0,0,0.847,1.809,0,4.35c-0.847,2.542,4.66,3.954,4.942,7.766
			c0.282,3.812-0.847,5.981-0.847,5.981"/>
		
			<path id="XMLID_448_" style="fill:none;stroke:#231F20;stroke-width:2;stroke-linecap:round;stroke-linejoin:round;stroke-miterlimit:10;" d="
			M135.088,78.935c0,0,2.869,4.83,4.422,9.327"/>
		<path id="XMLID_447_" style="fill:none;stroke:#231F20;stroke-linecap:round;stroke-linejoin:round;stroke-miterlimit:10;" d="
			M112.965,62.541c0,0,11.206-1.694,23.465,26.969"/>
		<path id="XMLID_446_" style="fill:none;stroke:#231F20;stroke-linecap:round;stroke-linejoin:round;stroke-miterlimit:10;" d="
			M116.301,101.091c0.743,0.872,1.222,1.966,1.36,3.104"/>
		<path id="XMLID_445_" style="fill:none;stroke:#231F20;stroke-linecap:round;stroke-linejoin:round;stroke-miterlimit:10;" d="
			M118.215,99.791c1.146,0.498,2.094,1.436,2.606,2.576"/>
		<path id="XMLID_444_" style="fill:none;stroke:#231F20;stroke-linecap:round;stroke-linejoin:round;stroke-miterlimit:10;" d="
			M119.839,98.45c1.35,0.444,2.584,1.235,3.551,2.275"/>
		<path id="XMLID_443_" style="fill:none;stroke:#231F20;stroke-linecap:round;stroke-linejoin:round;stroke-miterlimit:10;" d="
			M122.092,96.505c1.638,0.298,3.179,1.106,4.355,2.284"/>
		<path id="XMLID_442_" style="fill:none;stroke:#231F20;stroke-linecap:round;stroke-linejoin:round;stroke-miterlimit:10;" d="
			M124.568,94.87c2.344-0.107,4.714,0.47,6.747,1.641"/>
		<path id="XMLID_441_" style="fill:none;stroke:#231F20;stroke-linecap:round;stroke-linejoin:round;stroke-miterlimit:10;" d="
			M128.434,92.875c2.549-0.035,5.103,0.702,7.242,2.089"/>
		<path id="XMLID_440_" style="fill:none;stroke:#231F20;stroke-linecap:round;stroke-linejoin:round;stroke-miterlimit:10;" d="
			M131.685,90.644c1.193,0.092,2.37,0.392,3.462,0.88"/>
		<path id="XMLID_439_" style="fill:none;stroke:#231F20;stroke-linecap:round;stroke-linejoin:round;stroke-miterlimit:10;" d="
			M112.546,66.331c1.661,0.312,3.288,0.805,4.842,1.468"/>
		<path id="XMLID_437_" style="fill:none;stroke:#231F20;stroke-linecap:round;stroke-linejoin:round;stroke-miterlimit:10;" d="
			M113.638,68.737c1.971,0.532,3.813,1.537,5.327,2.906"/>
		<path id="XMLID_436_" style="fill:none;stroke:#231F20;stroke-linecap:round;stroke-linejoin:round;stroke-miterlimit:10;" d="
			M114.678,71.959c1.686,0.747,3.234,1.806,4.542,3.107"/>
		<path id="XMLID_435_" style="fill:none;stroke:#231F20;stroke-linecap:round;stroke-linejoin:round;stroke-miterlimit:10;" d="
			M114.989,75.171c1.5,0.895,3.031,1.737,4.589,2.525"/>
		<path id="XMLID_434_" style="fill:none;stroke:#231F20;stroke-linecap:round;stroke-linejoin:round;stroke-miterlimit:10;" d="
			M112.829,78.42c2.194,0.129,4.362,0.691,6.343,1.644"/>
		<path id="XMLID_432_" style="fill:none;stroke:#231F20;stroke-linecap:round;stroke-linejoin:round;stroke-miterlimit:10;" d="
			M114.491,81.335c1.145,0.181,2.291,0.362,3.436,0.543c0.846,0.134,1.738,0.287,2.393,0.839"/>
		<path id="XMLID_428_" style="fill:none;stroke:#231F20;stroke-linecap:round;stroke-linejoin:round;stroke-miterlimit:10;" d="
			M113.392,84.469c2.316-0.176,4.657-0.028,6.933,0.439"/>
		<path id="XMLID_427_" style="fill:none;stroke:#231F20;stroke-linecap:round;stroke-linejoin:round;stroke-miterlimit:10;" d="
			M114.805,87.425c2.444-0.281,4.945-0.054,7.299,0.661"/>
		<path id="XMLID_425_" style="fill:none;stroke:#231F20;stroke-linecap:round;stroke-linejoin:round;stroke-miterlimit:10;" d="
			M116.213,90.074c2.198-0.266,4.433-0.234,6.622,0.094"/>
		<path id="XMLID_418_" style="fill:none;stroke:#231F20;stroke-linecap:round;stroke-linejoin:round;stroke-miterlimit:10;" d="
			M117.349,92.802c1.783-0.272,3.566-0.545,5.349-0.817"/>
		<path id="XMLID_416_" style="fill:none;stroke:#231F20;stroke-linecap:round;stroke-linejoin:round;stroke-miterlimit:10;" d="
			M117.909,95.445c1.584-0.709,3.352-1.001,5.08-0.842"/>
		
			<path id="XMLID_415_" style="fill:none;stroke:#231F20;stroke-width:2;stroke-linecap:round;stroke-linejoin:round;stroke-miterlimit:10;" d="
			M175.846,85.416c0,0,3.988,1.283,9.152-6.481c5.164-7.765,19.001-19.505,26.151-20.773"/>
		<path id="XMLID_414_" style="fill:none;stroke:#231F20;stroke-linecap:round;stroke-linejoin:round;stroke-miterlimit:10;" d="
			M194.719,85.495c0,0,3.53-0.958,5.789-9.061c2.259-8.103,5.224-13.186,6.636-14.88"/>
		<path id="XMLID_408_" style="fill:none;stroke:#231F20;stroke-linecap:round;stroke-linejoin:round;stroke-miterlimit:10;" d="
			M184.58,83.92c1.548-0.744,3.211-1.249,4.911-1.49"/>
		<path id="XMLID_401_" style="fill:none;stroke:#231F20;stroke-linecap:round;stroke-linejoin:round;stroke-miterlimit:10;" d="
			M186.675,81.052c1.392-0.447,2.801-0.841,4.222-1.183"/>
		<path id="XMLID_231_" style="fill:none;stroke:#231F20;stroke-linecap:round;stroke-linejoin:round;stroke-miterlimit:10;" d="
			M188.932,78.369c1.083-0.186,2.166-0.371,3.249-0.557"/>
		<path id="XMLID_230_" style="fill:none;stroke:#231F20;stroke-linecap:round;stroke-linejoin:round;stroke-miterlimit:10;" d="
			M190.889,75.73c1.185-0.244,2.369-0.487,3.554-0.731"/>
		<path id="XMLID_229_" style="fill:none;stroke:#231F20;stroke-linecap:round;stroke-linejoin:round;stroke-miterlimit:10;" d="
			M192.885,73.545c0.773,0.093,1.572-0.044,2.27-0.388"/>
		<path id="XMLID_228_" style="fill:none;stroke:#231F20;stroke-linecap:round;stroke-linejoin:round;stroke-miterlimit:10;" d="
			M195.004,71.597c0.704-0.109,1.407-0.219,2.111-0.328"/>
		<path id="XMLID_227_" style="fill:none;stroke:#231F20;stroke-linecap:round;stroke-linejoin:round;stroke-miterlimit:10;" d="
			M185.723,85.767c0.979-0.579,2.071-0.966,3.196-1.133"/>
		<path id="XMLID_226_" style="fill:none;stroke:#231F20;stroke-linecap:round;stroke-linejoin:round;stroke-miterlimit:10;" d="
			M187.102,87.437c1.411-0.241,2.822-0.482,4.233-0.723"/>
		<path id="XMLID_162_" style="fill:none;stroke:#231F20;stroke-linecap:round;stroke-linejoin:round;stroke-miterlimit:10;" d="
			M189.915,88.366c1.008-0.257,2.077-0.274,3.093-0.05"/>
		<path id="XMLID_161_" style="fill:none;stroke:#231F20;stroke-linecap:round;stroke-linejoin:round;stroke-miterlimit:10;" d="
			M191.336,89.857c1.24-0.114,2.505,0.045,3.679,0.463"/>
		<path id="XMLID_160_" style="fill:none;stroke:#231F20;stroke-linecap:round;stroke-linejoin:round;stroke-miterlimit:10;" d="
			M192.596,92.26c1.31,0.11,2.604,0.417,3.823,0.908"/>
		<path id="XMLID_159_" style="fill:none;stroke:#231F20;stroke-linecap:round;stroke-linejoin:round;stroke-miterlimit:10;" d="
			M194.298,94.89c0.788-0.114,1.624,0.207,2.135,0.818"/>
		<path id="XMLID_158_" style="fill:#231F20;stroke:#231F20;stroke-linecap:round;stroke-linejoin:round;stroke-miterlimit:10;" d="
			M101.257,132.53c0,0,6.16,4.086,14.21-1.58c8.05-5.666,15.879-4.882,15.879-4.882s-7.999,2.085-14.114,7.556
			S103.957,138.462,101.257,132.53z"/>
		
			<path id="XMLID_157_" style="fill:none;stroke:#231F20;stroke-width:2;stroke-linecap:round;stroke-linejoin:round;stroke-miterlimit:10;" d="
			M307.254,372.049c0,0,5.083,9.884,17.226,16.379c12.143,6.495,11.705,16.277,11.705,16.277"/>
		
			<path id="XMLID_156_" style="fill:none;stroke:#231F20;stroke-width:2;stroke-linecap:round;stroke-linejoin:round;stroke-miterlimit:10;" d="
			M182.582,393.573c0,0,10.584-12.205,23.857-2.321"/>
		
			<path id="XMLID_155_" style="fill:none;stroke:#231F20;stroke-width:2;stroke-linecap:round;stroke-linejoin:round;stroke-miterlimit:10;" d="
			M199.379,396.052c0,0-8.365,6.772-1.217,14.964"/>
		
			<path id="XMLID_154_" style="fill:none;stroke:#231F20;stroke-width:2;stroke-linecap:round;stroke-linejoin:round;stroke-miterlimit:10;" d="
			M212.369,193.288c0,0,1.694,22.4-6.21,49.044c-0.44,1.5-0.839,2.948-1.178,4.346c-1.872,7.523-2.406,13.75-2.533,19.655
			c-0.085,3.914,0.008,7.684,0.034,11.59c0.008,3.922-0.051,7.972-0.466,12.454c-0.5,5.363-1.508,11.344-3.482,18.418
			c-8.192,29.364-27.085,76.247-27.085,76.247"/>
		<path id="XMLID_153_" style="fill:none;stroke:#231F20;stroke-linecap:round;stroke-linejoin:round;stroke-miterlimit:10;" d="
			M190.887,178.915c1.875,1.422,3.75,2.844,5.625,4.266"/>
		<path id="XMLID_152_" style="fill:none;stroke:#231F20;stroke-linecap:round;stroke-linejoin:round;stroke-miterlimit:10;" d="
			M190.36,183.101c2.043,1.546,3.665,3.644,4.645,6.012"/>
		<path id="XMLID_151_" style="fill:none;stroke:#231F20;stroke-linecap:round;stroke-linejoin:round;stroke-miterlimit:10;" d="
			M188.731,188.699c1.733,1.977,2.817,4.513,3.048,7.131"/>
		<path id="XMLID_150_" style="fill:none;stroke:#231F20;stroke-linecap:round;stroke-linejoin:round;stroke-miterlimit:10;" d="
			M185.87,193.563c0.79,3.338,1.294,6.745,1.502,10.169"/>
		<path id="XMLID_149_" style="fill:none;stroke:#231F20;stroke-linecap:round;stroke-linejoin:round;stroke-miterlimit:10;" d="
			M182.594,199.778c0.249,4.52,0.498,9.04,0.747,13.561"/>
		<path id="XMLID_148_" style="fill:none;stroke:#231F20;stroke-linecap:round;stroke-linejoin:round;stroke-miterlimit:10;" d="
			M179.018,207.409c-0.31,3.865-0.62,7.73-0.93,11.594"/>
		<path id="XMLID_147_" style="fill:none;stroke:#231F20;stroke-linecap:round;stroke-linejoin:round;stroke-miterlimit:10;" d="
			M174.171,213.341c-0.051,4.068-0.382,8.132-0.99,12.154"/>
		<path id="XMLID_146_" style="fill:none;stroke:#231F20;stroke-linecap:round;stroke-linejoin:round;stroke-miterlimit:10;" d="
			M167.954,219.542c-0.537,3.455-1.277,6.879-2.217,10.247"/>
		<path id="XMLID_145_" style="fill:none;stroke:#231F20;stroke-linecap:round;stroke-linejoin:round;stroke-miterlimit:10;" d="
			M161.993,226.608c-0.17,2.825-0.34,5.65-0.511,8.475"/>
		<path id="XMLID_144_" style="fill:none;stroke:#231F20;stroke-linecap:round;stroke-linejoin:round;stroke-miterlimit:10;" d="
			M157.339,231.703c-0.536,3.641-0.735,7.331-0.593,11.008"/>
		<path id="XMLID_143_" style="fill:none;stroke:#231F20;stroke-linecap:round;stroke-linejoin:round;stroke-miterlimit:10;" d="
			M151.233,238.751c0.176,3.954,0.352,7.908,0.528,11.862"/>
		<path id="XMLID_142_" style="fill:none;stroke:#231F20;stroke-linecap:round;stroke-linejoin:round;stroke-miterlimit:10;" d="
			M146.972,242.968c0.546,2.612,0.885,5.267,1.015,7.932"/>
		<path id="XMLID_141_" style="fill:none;stroke:#231F20;stroke-linecap:round;stroke-linejoin:round;stroke-miterlimit:10;" d="
			M141.448,241.512c0.767,2.681,1.152,5.471,1.14,8.259"/>
		<path id="XMLID_140_" style="fill:none;stroke:#231F20;stroke-linecap:round;stroke-linejoin:round;stroke-miterlimit:10;" d="
			M137.435,239.769c1.197,1.871,1.813,4.109,1.743,6.329"/>
		<path id="XMLID_139_" style="fill:none;stroke:#231F20;stroke-linecap:round;stroke-linejoin:round;stroke-miterlimit:10;" d="
			M132.075,235.854c1.109,2.651,1.918,5.428,2.405,8.26"/>
		<path id="XMLID_138_" style="fill:none;stroke:#231F20;stroke-linecap:round;stroke-linejoin:round;stroke-miterlimit:10;" d="
			M127.394,235.916c1.207,1.825,1.802,4.047,1.669,6.23"/>
		<path id="XMLID_137_" style="fill:#231F20;stroke:#231F20;stroke-linecap:round;stroke-linejoin:round;stroke-miterlimit:10;" d="
			M234.837,199.778c-2.94,15.665-0.864,26.271-0.017,50.831c0.839,24.382-25.433,34.167-25.831,34.311
			c0.474-0.525,15.707-17.206,18.189-34.311c2.516-17.367-4.643-27.102-0.83-57.05c3.711-29.143-6.227-37.387-6.752-37.802
			c4.888,1.627,9.988,3.643,15.3,6.176C238.149,174.286,237.039,188.053,234.837,199.778z"/>
		<path id="XMLID_136_" style="fill:#231F20;stroke:#231F20;stroke-linecap:round;stroke-linejoin:round;stroke-miterlimit:10;" d="
			M277.179,207.411c-2.965,20.324-7.625,23.721-19.062,60.998c-11.437,37.276-49.137,38.971-49.137,38.971
			c22.874-9.319,35.582-24.569,40.242-47.443c4.66-22.874,8.472-15.249,14.826-50.408c2.347-12.996,0.932-23.213-1.779-30.939
			c5.049,3.745,10.251,7.98,15.614,12.793C278.23,196.72,277.942,202.159,277.179,207.411z"/>
		<path id="XMLID_135_" style="fill:#231F20;stroke:#231F20;stroke-linecap:round;stroke-linejoin:round;stroke-miterlimit:10;" d="
			M308.991,236.309c-0.796,15.241-7.227,25.433-10.277,29.135c-5.583,6.778-10.946,17.367-27.889,44.054
			c-16.944,26.686-52.526,20.333-52.526,20.333c23.721-5.507,33.464-12.708,43.207-22.451s7.201-15.249,26.686-51.255
			c8.04-14.851,10.454-28.923,10.522-40.326C302.62,222.186,306.026,229.116,308.991,236.309z"/>
		
			<path id="XMLID_134_" style="fill:none;stroke:#231F20;stroke-width:2;stroke-linecap:round;stroke-linejoin:round;stroke-miterlimit:10;" d="
			M426.42,418.48c-1.576,8.26-7.913,15.495-19.909,19.875h-0.008c-3.796,1.398-8.158,2.499-13.115,3.253
			c-2.948,0.449-6.1,0.779-9.471,0.974c-2.186,0.127-4.456,0.195-6.82,0.203c-3.202,0.025-6.574-0.068-10.115-0.28
			c-1.491-0.085-2.957-0.178-4.38-0.263c-2.406-0.144-4.719-0.28-6.939-0.415c-5.1-0.314-9.734-0.602-13.936-0.873
			c-2.304-0.144-4.473-0.28-6.523-0.415c-5.32-0.347-9.819-0.652-13.598-0.924c-2.465-0.169-4.626-0.322-6.506-0.457
			c-1.389-0.102-2.618-0.195-3.719-0.28c-2.22-0.169-4.244-1.068-5.829-2.465c-1.576-1.406-2.702-3.313-3.134-5.498
			c-1.228-6.202,3.575-11.954,9.904-11.835c10.903,0.195,27.576,0.737,43.647,2.245c27.11,2.542,47.494-1.965,37.31-7.76
			c-6.803-1.457-13.275-1.957-18.875-2.55c-23.73-2.508-38.217-6.311-38.217-6.311c-4.448,5.939-21.146,5.939-21.146,5.939
			l-99.808-0.373c-6.684,4.456-17.071,0.745-17.071,0.745s-12.987,4.82-17.062-2.601c-4.083-7.421,1.483-14.843,1.483-14.843
			c-7.421-1.483-11.132-8.531-11.132-8.531l-1.855,7.794c0,0-1.855,6.676-5.939,14.843c-4.083,8.158-19.29,3.711-19.29,3.711
			c-8.167,3.711-14.843,0.364-14.843,0.364c-5.193,0-7.049-4.821-7.049-4.821s-10.022-0.745-8.54-11.869
			c1.491-11.132,16.012-11.454,16.012-11.454c-0.822-21.349-3.812-42.927-7.37-62.26c-0.415-2.271-0.83-4.549-1.22-6.837
			c-0.449-2.525-0.873-5.066-1.271-7.625c-0.339-2.135-0.652-4.278-0.949-6.439c-0.085-0.61-0.186-1.228-0.305-1.839
			c-4.871-26.449-36.234-52.509-43.851-92.039c-7.794-40.445,12.242-58.253,14.843-85.338C92.415,94.15,99.1,87.839,99.1,87.839
			s0.364-25.594,12.615-27.822c12.242-2.228,23.374,18.918,23.374,18.918c19.663-4.448,21.146,0,30.423-3.711
			c9.277-3.711,8.531,0.745,18.181-5.193c9.65-5.939,30.058-15.953,27.458-11.869c-2.601,4.083-7.421,13.352-8.531,19.663
			c-1.118,6.303-5.193,10.759-5.193,10.759s3.338,4.084,1.855,8.167c-1.491,4.075-2.601,12.979,1.11,22.629
			c3.668,9.539,0.932,15.334-1.288,20.841c-0.025,0.068-0.051,0.127-0.076,0.195c-0.356,0.889-0.729,1.737-1.11,2.525
			c-1.982,4.168-4.066,6.862-4.066,6.862c7.862,1.127,16.427,2.838,25.721,5.939c0,0,0.008,0.008,0.025,0.017
			c4.888,1.627,9.988,3.643,15.3,6.176c8.565,4.066,17.681,9.455,27.373,16.656c5.049,3.745,10.251,7.98,15.614,12.793
			c1.855,1.652,3.728,3.38,5.617,5.176c5.744,5.447,10.793,11.996,15.216,19.24c3.906,6.388,7.311,13.318,10.277,20.51
			c4.778,11.59,8.387,23.865,10.996,35.675c1.194,5.38,2.177,10.658,2.965,15.724c1.33,8.421,2.118,16.275,2.465,23.061
			c0.22,4.321,0.254,8.201,0.136,11.522v0.008c-0.136,3.346-0.424,6.125-0.864,8.201c-4.083,19.291-2.601,30.423-2.601,30.423
			c2.686,10.31,11.759,15.893,23.501,19.35c1.864,0.551,3.804,1.051,5.795,1.5c5.261,1.203,10.886,2.092,16.605,2.88
			c4.236,0.585,8.514,1.11,12.742,1.652h0.009c7.066,0.906,13.945,1.872,20.138,3.253c4.617,1.042,8.845,2.313,12.462,3.973
			c5.651,2.584,9.819,6.117,11.674,11.174c0.407,1.11,0.754,2.211,1.017,3.313v0.009C426.903,411.593,427.056,415.117,426.42,418.48
			z"/>
		<path id="XMLID_133_" style="fill:none;stroke:#231F20;stroke-linecap:round;stroke-linejoin:round;stroke-miterlimit:10;" d="
			M388.09,404.705c16.309,0,22.129,14.689,0,15.975"/>
		
			<path id="XMLID_132_" style="fill:none;stroke:#231F20;stroke-width:2;stroke-linecap:round;stroke-linejoin:round;stroke-miterlimit:10;" d="
			M235.526,360.188c0,0-5.93,9.602,12.708,22.874c18.638,13.273,28.805,12.14,38.688,20.472"/>
		<path id="XMLID_131_" style="fill:#231F20;stroke:#231F20;stroke-linecap:round;stroke-linejoin:round;stroke-miterlimit:10;" d="
			M242.021,342.962c0,0,34.963-19.702,55.067,10.449C297.088,353.411,283.533,310.204,242.021,342.962z"/>
		<path id="XMLID_130_" style="fill:#231F20;stroke:#231F20;stroke-linecap:round;stroke-linejoin:round;stroke-miterlimit:10;" d="
			M240.609,355.387c0,0,35.3-15.249,59.586,11.578C300.195,366.966,281.644,322.915,240.609,355.387z"/>
		<path id="XMLID_129_" style="fill:#231F20;stroke:#231F20;stroke-linecap:round;stroke-linejoin:round;stroke-miterlimit:10;" d="
			M243.504,368.942c0,0,24.497-11.861,44.265,3.106c19.768,14.967,30.499,16.328,30.499,16.328s-14.402,1.463-33.323-9.268
			C266.024,368.378,263.344,365.271,243.504,368.942z"/>
		<path id="XMLID_127_" style="fill:#231F20;stroke:#231F20;stroke-linecap:round;stroke-linejoin:round;stroke-miterlimit:10;" d="
			M322.953,287.708c-3.719,3.075-7.93,7.913-11.463,15.436c-8.472,18.071-26.263,21.747-26.263,21.747s12.428-6.777,23.764-33.04
			c4.134-9.573,7.879-15.817,10.996-19.867C321.182,277.364,322.165,282.642,322.953,287.708z"/>
		<path id="XMLID_126_" style="fill:#231F20;stroke:#231F20;stroke-linecap:round;stroke-linejoin:round;stroke-miterlimit:10;" d="
			M325.554,322.29v0.008c-3.262,1.771-7.108,4.431-10.107,8.192c-6.498,8.141-15.249,8.802-15.249,8.802s3.101-0.847,12.42-15.537
			c4.786-7.54,9.429-11.208,12.801-12.987C325.638,315.089,325.672,318.969,325.554,322.29z"/>
		<path id="XMLID_125_" style="fill:none;stroke:#231F20;stroke-linecap:round;stroke-linejoin:round;stroke-miterlimit:10;" d="
			M187.81,354.508c0.175,0.13,0.119,0.4,0.045,0.605c-0.597,1.659-1.194,3.318-1.791,4.976"/>
		<path id="XMLID_124_" style="fill:none;stroke:#231F20;stroke-linecap:round;stroke-linejoin:round;stroke-miterlimit:10;" d="
			M190.262,359.681c-0.33,2.04-0.556,4.097-0.676,6.16"/>
		<path id="XMLID_123_" style="fill:none;stroke:#231F20;stroke-linecap:round;stroke-linejoin:round;stroke-miterlimit:10;" d="
			M193.196,362.228c0.161,2.328,0.191,4.664,0.09,6.995"/>
		<path id="XMLID_122_" style="fill:none;stroke:#231F20;stroke-linecap:round;stroke-linejoin:round;stroke-miterlimit:10;" d="
			M196.598,366.261c-0.027,2.612,0.118,5.227,0.432,7.821"/>
		<path id="XMLID_121_" style="fill:none;stroke:#231F20;stroke-linecap:round;stroke-linejoin:round;stroke-miterlimit:10;" d="
			M201.047,368.159c0.175,3.108,0.35,6.217,0.525,9.325"/>
		<path id="XMLID_120_" style="fill:none;stroke:#231F20;stroke-linecap:round;stroke-linejoin:round;stroke-miterlimit:10;" d="
			M204.871,372.383c0.489,3.24,0.89,6.494,1.201,9.756"/>
		<path id="XMLID_119_" style="fill:none;stroke:#231F20;stroke-linecap:round;stroke-linejoin:round;stroke-miterlimit:10;" d="
			M208.034,376.226c0.345,2.835,0.837,5.652,1.473,8.436"/>
		<path id="XMLID_118_" style="fill:none;stroke:#231F20;stroke-linecap:round;stroke-linejoin:round;stroke-miterlimit:10;" d="
			M213.367,379.773c0.85,3.074,1.478,6.209,1.877,9.372"/>
		<path id="XMLID_117_" style="fill:none;stroke:#231F20;stroke-linecap:round;stroke-linejoin:round;stroke-miterlimit:10;" d="
			M217.519,383.612c0.545,2.405,1.09,4.81,1.635,7.214"/>
		<path id="XMLID_116_" style="fill:none;stroke:#231F20;stroke-linecap:round;stroke-linejoin:round;stroke-miterlimit:10;" d="
			M221.359,384.866c0.709,2.14,1.418,4.281,2.127,6.421"/>
		<path id="XMLID_115_" style="fill:none;stroke:#231F20;stroke-linecap:round;stroke-linejoin:round;stroke-miterlimit:10;" d="
			M226.399,386.781c0.736,1.656,1.349,3.366,1.832,5.112"/>
		<path id="XMLID_114_" style="fill:none;stroke:#231F20;stroke-linecap:round;stroke-linejoin:round;stroke-miterlimit:10;" d="
			M229.991,386.781c0.84,1.534,1.451,3.194,1.806,4.906"/>
		<path id="XMLID_113_" style="fill:none;stroke:#231F20;stroke-linecap:round;stroke-linejoin:round;stroke-miterlimit:10;" d="
			M233.705,387.559c0.988,1.666,1.976,3.332,2.965,4.997"/>
		<path id="XMLID_112_" style="fill:none;stroke:#231F20;stroke-linecap:round;stroke-linejoin:round;stroke-miterlimit:10;" d="
			M237.825,388.677c1.165,1.435,2.156,3.012,2.943,4.684"/>
		<path id="XMLID_81_" style="fill:none;stroke:#231F20;stroke-linecap:round;stroke-linejoin:round;stroke-miterlimit:10;" d="
			M241.721,389.312c0.408,1.5,1.165,2.904,2.193,4.069"/>
		<path id="XMLID_80_" style="fill:none;stroke:#231F20;stroke-linecap:round;stroke-linejoin:round;stroke-miterlimit:10;" d="
			M245.018,389.514c0.76,0.574,1.458,1.232,2.077,1.957"/>
		<path id="XMLID_79_" style="fill:none;stroke:#231F20;stroke-linecap:round;stroke-linejoin:round;stroke-miterlimit:10;" d="
			M248.752,389.252c0.694,1.223,1.74,2.243,2.98,2.907"/>
		<path id="XMLID_78_" style="fill:#231F20;stroke:#231F20;stroke-linecap:round;stroke-linejoin:round;stroke-miterlimit:10;" d="
			M142.569,305.694c-0.432,0.263-10.293,6.1-22.484,1.194c-0.339-2.135-0.652-4.278-0.949-6.439
			c-0.085-0.61-0.186-1.228-0.305-1.839C122.931,302.288,131.564,308.227,142.569,305.694z"/>
		<path id="XMLID_77_" style="fill:#231F20;stroke:#231F20;stroke-linecap:round;stroke-linejoin:round;stroke-miterlimit:10;" d="
			M147.982,315.852c0,0-8.514,9.743-25.407,5.498c-0.415-2.271-0.83-4.549-1.22-6.837
			C128.26,317.216,138.536,319.757,147.982,315.852z"/>
		<path id="XMLID_76_" style="fill:none;stroke:#231F20;stroke-linecap:round;stroke-linejoin:round;stroke-miterlimit:10;" d="
			M154.166,236.471c0.441,1.804,0.489,3.704,0.139,5.528"/>
		<path id="XMLID_73_" style="fill:none;stroke:#231F20;stroke-linecap:round;stroke-linejoin:round;stroke-miterlimit:10;" d="
			M170.315,219.272c-0.025,2.311-0.192,4.621-0.501,6.911"/>
		<path id="XMLID_72_" style="fill:none;stroke:#231F20;stroke-linecap:round;stroke-linejoin:round;stroke-miterlimit:10;" d="
			M122.969,232.274c0.827,1.502,1.261,3.217,1.248,4.931"/>
		<path id="XMLID_71_" style="fill:none;stroke:#231F20;stroke-linecap:round;stroke-linejoin:round;stroke-miterlimit:10;" d="
			M118.457,229.678c0.184,0.009,0.291,0.208,0.359,0.379c0.869,2.18,1.586,4.42,2.144,6.7"/>
		<path id="XMLID_70_" style="fill:none;stroke:#231F20;stroke-linecap:round;stroke-linejoin:round;stroke-miterlimit:10;" d="
			M114.318,228.991c0.643,2.217,1.286,4.434,1.929,6.65"/>
		<path id="XMLID_69_" style="fill:none;stroke:#231F20;stroke-linecap:round;stroke-linejoin:round;stroke-miterlimit:10;" d="
			M80.847,209.424c-0.266,0.56-0.632,1.072-1.075,1.506"/>
		<path id="XMLID_68_" style="fill:none;stroke:#231F20;stroke-linecap:round;stroke-linejoin:round;stroke-miterlimit:10;" d="
			M81.953,211.104c-0.598,1.465-1.233,2.915-1.907,4.347"/>
		<path id="XMLID_67_" style="fill:none;stroke:#231F20;stroke-linecap:round;stroke-linejoin:round;stroke-miterlimit:10;" d="
			M83.706,214.926c-0.548,1.935-1.162,3.852-1.84,5.745"/>
		<path id="XMLID_66_" style="fill:none;stroke:#231F20;stroke-linecap:round;stroke-linejoin:round;stroke-miterlimit:10;" d="
			M86.66,219.983c-0.136,2.74-0.384,5.473-0.744,8.193"/>
		<path id="XMLID_65_" style="fill:none;stroke:#231F20;stroke-linecap:round;stroke-linejoin:round;stroke-miterlimit:10;" d="
			M89.653,225.63c-0.102,3.2-0.076,6.404,0.078,9.601"/>
		<path id="XMLID_64_" style="fill:none;stroke:#231F20;stroke-linecap:round;stroke-linejoin:round;stroke-miterlimit:10;" d="
			M92.976,231.83c0.431,2.911,0.791,5.833,1.08,8.762"/>
		<path id="XMLID_63_" style="fill:none;stroke:#231F20;stroke-linecap:round;stroke-linejoin:round;stroke-miterlimit:10;" d="
			M96.955,235.355c0.456,2.928,0.912,5.855,1.368,8.783"/>
		<path id="XMLID_62_" style="fill:none;stroke:#231F20;stroke-linecap:round;stroke-linejoin:round;stroke-miterlimit:10;" d="
			M100.681,239.463c0.635,3.188,1.584,6.314,2.827,9.318"/>
		<path id="XMLID_52_" style="fill:none;stroke:#231F20;stroke-linecap:round;stroke-linejoin:round;stroke-miterlimit:10;" d="
			M104.945,241.132c0.686,0.995,1.094,2.15,1.495,3.291c0.828,2.358,1.657,4.715,2.485,7.073"/>
		<path id="XMLID_50_" style="fill:none;stroke:#231F20;stroke-linecap:round;stroke-linejoin:round;stroke-miterlimit:10;" d="
			M108.897,244.128c0.12-0.132,0.316,0.059,0.386,0.223c1.078,2.516,2.155,5.033,3.233,7.549"/>
		
			<path id="XMLID_34_" style="fill:none;stroke:#231F20;stroke-width:2;stroke-linecap:round;stroke-linejoin:round;stroke-miterlimit:10;" d="
			M137.313,388.382c0,0,9.751-2.949,18.294,7.671"/>
		
			<path id="XMLID_27_" style="fill:none;stroke:#231F20;stroke-width:2;stroke-linecap:round;stroke-linejoin:round;stroke-miterlimit:10;" d="
			M129.947,383.612c0,0,1.831-0.784,5.628,0.401"/>
		
			<path id="XMLID_26_" style="fill:none;stroke:#231F20;stroke-width:2;stroke-linecap:round;stroke-linejoin:round;stroke-miterlimit:10;" d="
			M128.921,400.289c0,0-4.021,4.01,0.601,11.465"/>
		
			<path id="XMLID_25_" style="fill:none;stroke:#231F20;stroke-width:2;stroke-linecap:round;stroke-linejoin:round;stroke-miterlimit:10;" d="
			M118.19,396.052c0,0-2.542,4.096,2.259,10.45"/>
		
			<path id="XMLID_24_" style="fill:none;stroke:#231F20;stroke-width:2;stroke-linecap:round;stroke-linejoin:round;stroke-miterlimit:10;" d="
			M142.899,398.594c0,0-6.67,6.105,1.466,12.795"/>
		<path id="XMLID_23_" style="fill:#231F20;stroke:#231F20;stroke-linecap:round;stroke-linejoin:round;stroke-miterlimit:10;" d="
			M204.982,246.678c-1.872,7.523-2.406,13.75-2.533,19.655c-2.516,1.44-5.956,2.88-10.463,3.77
			c-11.53,2.262-29.194-1.694-44.503,7.904c0,0,5.391-12.14,25.698-13.835C187.295,262.995,198.441,254.083,204.982,246.678z"/>
		<path id="XMLID_22_" style="fill:#231F20;stroke:#231F20;stroke-linecap:round;stroke-linejoin:round;stroke-miterlimit:10;" d="
			M202.482,277.923c0.008,3.922-0.051,7.972-0.466,12.454c-3.77,0.415-9.048,0.424-15.021-1.212
			c-11.903-3.245-6.142-8.048-25.255-5.507c0,0,10.844-5.363,20.858-3.109C189.571,282.125,196.755,280.897,202.482,277.923z"/>
		<path id="XMLID_20_" style="fill:#231F20;stroke:#231F20;stroke-linecap:round;stroke-linejoin:round;stroke-miterlimit:10;" d="
			M380.731,386.304c-0.381,0.195-0.762,0.398-1.135,0.61c-5.38,3.041-10.082,7.184-15.453,10.259
			c-5.371,3.067-11.844,5.032-17.74,3.185c4.397-0.288,8.345-2.838,11.581-5.837c3.236-2.991,5.99-6.489,9.362-9.345
			c0.203-0.169,0.415-0.347,0.644-0.525C372.226,385.237,376.504,385.762,380.731,386.304z"/>
		<path id="XMLID_17_" style="fill:#231F20;stroke:#231F20;stroke-linecap:round;stroke-linejoin:round;stroke-miterlimit:10;" d="
			M413.34,393.531c-4.812-0.11-9.607,0.796-14.301,3.118c-4.228,2.084-7.955,5.083-12.174,7.201
			c-4.219,2.11-9.277,3.296-13.64,1.483c4.228-0.542,7.481-3.812,10.742-6.566c4.905-4.143,10.691-7.481,16.91-9.209
			C405.495,390.599,409.722,391.87,413.34,393.531z"/>
		<path id="XMLID_16_" style="fill:#231F20;stroke:#231F20;stroke-linecap:round;stroke-linejoin:round;stroke-miterlimit:10;" d="
			M426.42,418.48c-2.736-3.185-6.616-5.312-10.691-6.413c-4.422-1.195-9.082-1.271-13.657-0.94
			c5.346-2.652,11.208-4.558,17.173-4.363c2.296,0.085,4.609,0.491,6.786,1.254v0.009
			C426.903,411.593,427.056,415.117,426.42,418.48z"/>
		<path id="XMLID_15_" style="fill:#231F20;stroke:#231F20;stroke-linecap:round;stroke-linejoin:round;stroke-miterlimit:10;" d="
			M406.749,437.669c-0.076,0.229-0.152,0.457-0.237,0.686h-0.008c-3.796,1.398-8.158,2.499-13.115,3.253
			c2.66-3.855,6.371-7.049,8.421-11.276c2.11-4.371,1.686-9.463,0.254-13.953c1.881,1.906,3.304,4.117,4.27,6.506
			C408.206,427.52,408.341,432.79,406.749,437.669z"/>
		<path id="XMLID_14_" style="fill:#231F20;stroke:#231F20;stroke-linecap:round;stroke-linejoin:round;stroke-miterlimit:10;" d="
			M351.385,381.772c-0.059,0.042-0.11,0.076-0.169,0.119c-4.295,3.05-9.226,8.167-12.793,14.682
			c1.059-5.142,2.22-10.514,5.549-14.572c0.5-0.61,1.042-1.186,1.618-1.728C347.454,380.823,349.394,381.323,351.385,381.772z"/>
		<path id="XMLID_13_" style="fill:#231F20;stroke:#231F20;stroke-linecap:round;stroke-linejoin:round;stroke-miterlimit:10;" d="
			M377.097,442.786c0.822-3.406,1.474-6.735,1.449-10.276c-0.017-2.372-0.5-4.77-0.017-7.091c2.203,5.651,4.922,11.242,5.388,17.164
			C381.731,442.71,379.461,442.778,377.097,442.786z"/>
		<path id="XMLID_12_" style="fill:#231F20;stroke:#231F20;stroke-linecap:round;stroke-linejoin:round;stroke-miterlimit:10;" d="
			M355.663,441.829c0.856-3.482,1.542-6.888,1.516-10.505c-0.017-2.372-0.5-4.77-0.025-7.091c2.313,5.913,5.193,11.784,5.448,18.011
			C360.195,442.1,357.883,441.965,355.663,441.829z"/>
		<path id="XMLID_11_" style="fill:#231F20;stroke:#231F20;stroke-linecap:round;stroke-linejoin:round;stroke-miterlimit:10;" d="
			M335.203,440.541c0.695-3.042,1.211-6.041,1.194-9.217c-0.017-2.372-0.491-4.77-0.017-7.091
			c2.152,5.498,4.795,10.963,5.346,16.724C339.422,440.813,337.253,440.677,335.203,440.541z"/>
		<path id="XMLID_10_" style="fill:#231F20;stroke:#231F20;stroke-linecap:round;stroke-linejoin:round;stroke-miterlimit:10;" d="
			M315.099,439.16c0.695-3.008,1.203-5.981,1.186-9.124c-0.017-2.364-0.5-4.761-0.025-7.082c2.152,5.481,4.778,10.929,5.346,16.664
			C319.141,439.448,316.98,439.296,315.099,439.16z"/>
	</g>
</g>
</svg>
