<?xml version="1.0" encoding="utf-8"?>
<!-- Generator: Adobe Illustrator 27.5.0, SVG Export Plug-In . SVG Version: 6.00 Build 0)  -->
<svg version="1.1" xmlns="http://www.w3.org/2000/svg" xmlns:xlink="http://www.w3.org/1999/xlink" x="0px" y="0px"
	 viewBox="0 0 800 800" style="enable-background:new 0 0 800 800;" xml:space="preserve">
<g id="Guides_For_Artboard">
</g>
<g id="Layer_2">
</g>
<g id="Layer_4">
</g>
<g id="Layer_3">
	<g>
		<path id="XMLID_8_" style="fill:#171617;" d="M427.665,685.891l-0.556,25.574l70.388-1.703
			c-22.688-22.792-57.647-7.892-58.015-7.733l-2.376,1.039l-4.751-17.815C430.778,685.478,429.215,685.69,427.665,685.891z"/>
		<path id="XMLID_46_" style="fill:#F1F2F2;" d="M339.262,535.81c0.3-1.159,0.618-2.313,0.973-3.453
			c0.223-0.672,0.43-1.335,0.661-2.012c-10.39,9.296-30.083,27.447-37.738,38.096c-9.557,13.296-9.243,86.884-9.122,99.152
			c0.592,0.275,1.2,0.554,1.842,0.84c0.567-15.088,3.47-85.374,8.692-94.948C309.735,564.018,333.999,540.792,339.262,535.81z"/>
		<path id="XMLID_49_" style="fill:#171617;" d="M317.88,680.884l3.709,17.924l-3.978-1.79c-0.089-0.04-9.25-4.086-21.06-4.58
			c-13.908-0.589-25.48,3.77-34.46,12.946l69.556,1.683l-8.447-24.815C321.365,681.807,319.592,681.349,317.88,680.884z"/>
		<path id="XMLID_50_" style="fill:#C9C7C8;" d="M373.476,623.268c-1.488,0-2.698,1.21-2.698,2.698s1.21,2.698,2.698,2.698
			c1.488,0,2.698-1.21,2.698-2.698S374.964,623.268,373.476,623.268z"/>
		<path id="XMLID_51_" style="fill:#C9C7C8;" d="M313.444,619.516c-1.488,0-2.698,1.21-2.698,2.698c0,1.488,1.21,2.698,2.698,2.698
			c1.488,0,2.698-1.21,2.698-2.698C316.142,620.726,314.932,619.516,313.444,619.516z"/>
		<path id="XMLID_52_" style="fill:#C9C7C8;" d="M324.231,569.802c-1.488,0-2.698,1.211-2.698,2.698c0,1.488,1.21,2.698,2.698,2.698
			c1.488,0,2.698-1.21,2.698-2.698C326.929,571.012,325.718,569.802,324.231,569.802z"/>
		<path id="XMLID_53_" style="fill:#F1F2F2;" d="M278.954,459.401c6.694-5.578,13.246-10.287,19.641-14.124
			c-8.77-6.371-34.243-25.136-46.421-36.896l-2.339-1.872c-4.088,9.143-18.143,38.744-34.488,52.382
			c0.877,0.784,2.03,1.798,3.395,2.959c0.275-0.192,0.598-0.422,0.975-0.692c0.644-0.479,1.434-1.058,2.313-1.765
			c0.439-0.355,0.907-0.733,1.4-1.131c0.482-0.414,0.988-0.849,1.516-1.303c1.072-0.893,2.15-1.957,3.333-3.04
			c0.567-0.567,1.149-1.15,1.745-1.745c0.595-0.597,1.209-1.202,1.789-1.86c0.592-0.648,1.193-1.306,1.802-1.973
			c0.617-0.661,1.174-1.387,1.773-2.088c0.583-0.714,1.203-1.411,1.77-2.154c0.563-0.746,1.128-1.495,1.693-2.245
			c1.17-1.474,2.154-3.076,3.21-4.6c0.255-0.386,0.527-0.762,0.766-1.153c0.235-0.394,0.469-0.786,0.702-1.176
			c0.466-0.781,0.926-1.552,1.379-2.311c0.224-0.381,0.458-0.753,0.668-1.133c0.2-0.385,0.398-0.767,0.594-1.145
			c0.392-0.756,0.776-1.496,1.149-2.216c0.785-1.426,1.379-2.841,1.951-4.14c0.554-1.305,1.14-2.477,1.524-3.565
			c0.395-1.086,0.739-2.032,1.023-2.812c0.568-1.562,0.893-2.455,0.893-2.455s-0.258,0.914-0.711,2.513
			c-0.227,0.801-0.502,1.774-0.818,2.891c-0.306,1.121-0.804,2.332-1.266,3.686c-0.479,1.348-0.974,2.821-1.658,4.313
			c-0.324,0.755-0.656,1.53-0.996,2.323c-0.17,0.397-0.342,0.798-0.516,1.203c-0.185,0.4-0.393,0.792-0.591,1.194
			c-0.402,0.802-0.811,1.618-1.225,2.444c-0.207,0.413-0.416,0.829-0.626,1.247c-0.214,0.416-0.461,0.815-0.691,1.227
			c-0.956,1.625-1.845,3.335-2.925,4.924c-0.521,0.808-1.042,1.616-1.562,2.42c-0.524,0.802-1.103,1.561-1.648,2.336
			c-0.561,0.763-1.08,1.551-1.662,2.275c-0.575,0.731-1.144,1.453-1.703,2.163c-0.548,0.721-1.134,1.39-1.702,2.051
			c-0.57,0.66-1.127,1.306-1.67,1.934c-1.138,1.21-2.177,2.394-3.223,3.405c-0.516,0.514-1.01,1.006-1.481,1.474
			c-0.485,0.455-0.946,0.886-1.378,1.292c-0.868,0.809-1.659,1.485-2.31,2.046c-0.072,0.06-0.135,0.113-0.204,0.169
			c6.193,5.028,14.772,11.338,22.637,14.858C256.62,474.998,268.386,468.208,278.954,459.401z"/>
		<path id="XMLID_57_" style="fill:#222222;" d="M352.551,501.177c16.843-18.463,23.122-37.849,22.387-45.072
			c-10.449-1.864-18.039-7.464-18.851-14.395c-2.058-1.282-8.234-4.514-18.191-4.521c-0.009,0-0.02,0-0.03,0
			c-11.55,0-30.643,4.45-56.062,25.633c-21.475,17.895-47.851,27.732-70.411,27.733c-11.107,0.001-21.286-2.382-29.505-7.362
			c-9.728-5.893-19.792-17.055-21.736-38.166c-1.379,15.359-0.162,33.959,9.004,50.351c11.507,20.581,33.281,33.877,64.716,39.519
			C299.607,546.699,336.444,518.834,352.551,501.177z"/>
		<path id="XMLID_59_" style="fill:#C9C7C8;" d="M377.228,574.961c-1.488,0-2.698,1.21-2.698,2.698s1.21,2.698,2.698,2.698
			c1.488,0,2.698-1.21,2.698-2.698S378.716,574.961,377.228,574.961z"/>
		<path id="XMLID_11_" style="fill:#F68D63;" d="M382.622,428.632c-12.013,0-22.162,5.424-22.162,11.844
			c0,6.419,10.149,11.843,22.162,11.843c12.013,0,22.162-5.424,22.162-11.843C404.783,434.055,394.635,428.632,382.622,428.632z"/>
		<path id="XMLID_67_" style="fill:#C9C7C8;" d="M384.452,542.904c0.001-0.008,0-0.016,0.001-0.024
			c-0.003,0.004-0.007,0.005-0.009,0.009c-0.01,0.016-0.018,0.033-0.025,0.052L384.452,542.904z"/>
		<path id="XMLID_15_" style="fill:#222222;" d="M601.123,428.337c0.755,6.423,0.4,12.809-1.089,19.043
			c-3.29,13.782-12.203,26.734-25.096,36.471c-26.877,20.294-68.896,24.901-92.694-2.519c-21.757-25.069-40.916-34.256-53.156-37.55
			c-10.007-2.692-17.132-1.985-20.014-1.48c-1.086,6.223-7.672,11.289-16.817,13.404c3.908,7.604,18.567,34.361,42.068,56.924
			c36.64,35.177,76.284,44.005,117.826,26.244c30.55-13.061,49.132-31.382,55.231-54.453
			C612.684,464.364,607.618,443.912,601.123,428.337z"/>
		<path id="XMLID_77_" style="fill:#F1F2F2;" d="M646.582,253.273c-7.931-7.187-20.77-23.96-37.024-45.195
			c-37.954-49.584-95.312-124.516-134.415-130.599c-25.606-3.981-75.697,0.444-125.173,19.574
			c-54.6,21.112-89.649,53.538-98.692,91.305c-8.633,36.057,0.077,68.458,25.888,96.302c15.597,16.826,32.999,26.759,39.256,30.022
			c4.747-26.409,10.901-52.632,18.819-74.049c-0.538,0.001-1.075,0.003-1.61,0.005c-0.685,0.008-1.367-0.008-2.045-0.046
			c-0.678-0.03-1.354-0.059-2.027-0.089c-0.67-0.059-1.337-0.117-1.999-0.175c-1.326-0.098-2.626-0.294-3.904-0.469
			c-2.549-0.397-4.994-0.884-7.272-1.488c-2.285-0.578-4.403-1.268-6.333-1.957c-3.852-1.411-6.92-2.908-8.992-4.078
			c-2.08-1.156-3.169-1.973-3.169-1.973s0.319,0.112,0.917,0.323c0.595,0.212,1.482,0.488,2.6,0.841
			c1.118,0.357,2.495,0.725,4.058,1.163c1.573,0.414,3.354,0.837,5.297,1.257c1.947,0.408,4.056,0.824,6.298,1.155
			c2.237,0.364,4.609,0.622,7.057,0.848c2.453,0.184,4.985,0.336,7.559,0.331c1.286,0.048,2.581-0.059,3.88-0.058
			c0.465-0.024,0.932-0.05,1.398-0.076c0.046-0.117,0.091-0.235,0.137-0.351l0.749,0.297c0.538-0.034,1.077-0.069,1.615-0.115
			c2.596-0.23,5.187-0.542,7.712-1.007c0.632-0.114,1.261-0.227,1.887-0.34c0.621-0.137,1.24-0.273,1.855-0.408
			c0.615-0.138,1.226-0.275,1.833-0.412c0.601-0.162,1.197-0.322,1.789-0.481c0.593-0.159,1.18-0.316,1.763-0.472
			c0.575-0.182,1.144-0.363,1.707-0.542c0.565-0.176,1.125-0.35,1.677-0.522c0.549-0.183,1.079-0.397,1.613-0.582
			c2.144-0.726,4.104-1.589,5.95-2.332c0.903-0.416,1.769-0.814,2.592-1.193c0.834-0.365,1.621-0.725,2.334-1.113
			c0.724-0.369,1.394-0.73,2.032-1.037c0.318-0.157,0.622-0.307,0.914-0.451c0.282-0.159,0.552-0.31,0.807-0.453
			c1.018-0.583,1.845-1.01,2.4-1.316c0.563-0.297,0.863-0.455,0.863-0.455s-0.248,0.23-0.712,0.662
			c-0.472,0.422-1.151,1.063-2.051,1.841c-0.876,0.812-2.044,1.653-3.364,2.664c-0.654,0.516-1.382,1.015-2.16,1.53
			c-0.782,0.512-1.605,1.05-2.463,1.612c-1.779,1.017-3.703,2.156-5.853,3.138c-0.532,0.256-1.069,0.525-1.626,0.767
			c-0.561,0.231-1.129,0.465-1.704,0.701c-0.577,0.234-1.159,0.47-1.748,0.708c-0.6,0.206-1.207,0.415-1.818,0.625
			c-0.613,0.207-1.232,0.415-1.855,0.626c-0.634,0.176-1.272,0.353-1.913,0.531c-0.644,0.175-1.291,0.351-1.942,0.528
			c-0.66,0.14-1.323,0.28-1.988,0.422c-2.574,0.574-5.234,0.911-7.897,1.174c-10.694,28.181-18.21,65.307-23.401,100.152
			c7.468-3.232,26.102-10.086,51.477-10.94c19.162-0.641,38.159,2.31,56.472,8.783c22.106,7.813,43.247,20.813,62.884,38.627
			c3.096-12.45,6.692-23.627,10.105-32.973c8.18-22.403,16.771-38.548,19.817-44.004c-0.851-0.875-1.629-1.811-2.401-2.737
			c-1.575-1.895-2.987-3.872-4.229-5.858c-1.268-1.97-2.309-3.984-3.246-5.905c-0.89-1.947-1.664-3.812-2.25-5.579
			c-0.598-1.761-1.046-3.405-1.374-4.874c-0.354-1.461-0.55-2.761-0.695-3.827c-0.033-0.225-0.059-0.435-0.082-0.641
			c-0.146,0.007-0.286,0.014-0.432,0.021c-0.688,0.047-1.382,0.039-2.08,0.031c-0.699-0.005-1.403-0.01-2.112-0.015
			c-1.419-0.01-2.857-0.021-4.312-0.032c-0.728-0.006-1.461-0.011-2.198-0.017c-0.737-0.001-1.476-0.079-2.22-0.115
			c-1.488-0.098-2.992-0.198-4.511-0.298c-0.759-0.053-1.522-0.107-2.289-0.161l-1.153-0.081c-0.384-0.037-0.767-0.093-1.152-0.139
			c-1.539-0.193-3.091-0.387-4.653-0.583c-0.782-0.098-1.566-0.196-2.354-0.295c-0.788-0.095-1.579-0.191-2.362-0.349
			c-3.137-0.594-6.343-1.073-9.513-1.84c-1.584-0.389-3.174-0.779-4.769-1.171l-2.396-0.589l-2.369-0.712
			c-1.58-0.478-3.164-0.957-4.749-1.436l-1.189-0.36l-1.17-0.42l-2.339-0.844c-1.553-0.581-3.118-1.131-4.658-1.737
			c-1.523-0.65-3.045-1.3-4.564-1.948l-2.275-0.972c-0.752-0.336-1.484-0.712-2.226-1.066c-1.478-0.718-2.951-1.434-4.418-2.147
			c-5.787-3.013-11.33-6.273-16.439-9.798c-2.596-1.701-5.036-3.535-7.416-5.335c-1.205-0.88-2.315-1.858-3.455-2.765
			c-1.123-0.929-2.264-1.807-3.315-2.763c-4.327-3.68-8.145-7.458-11.569-11.024c-3.377-3.614-6.356-7.028-8.813-10.2
			c-2.494-3.141-4.519-5.99-6.111-8.384c-1.618-2.375-2.749-4.333-3.524-5.659c-0.768-1.332-1.137-2.064-1.137-2.064
			s0.442,0.69,1.339,1.934c0.894,1.246,2.248,3.04,4.033,5.268c1.773,2.237,4.032,4.867,6.693,7.808
			c0.672,0.729,1.365,1.482,2.079,2.257c0.735,0.754,1.491,1.53,2.267,2.327c0.77,0.801,1.574,1.608,2.413,2.418
			c0.836,0.813,1.678,1.657,2.561,2.495c1.804,1.638,3.63,3.397,5.647,5.076c1.005,0.843,1.983,1.748,3.035,2.6
			c1.05,0.852,2.117,1.717,3.198,2.595c4.378,3.438,9.121,6.897,14.233,10.153c0.637,0.41,1.277,0.821,1.919,1.234
			c0.638,0.419,1.286,0.828,1.957,1.205c1.328,0.775,2.666,1.556,4.012,2.341c1.329,0.814,2.743,1.496,4.131,2.239
			c1.399,0.722,2.77,1.516,4.2,2.206c1.434,0.683,2.874,1.368,4.318,2.055c0.724,0.339,1.439,0.7,2.174,1.021l2.222,0.928
			c1.483,0.619,2.968,1.24,4.455,1.861c1.504,0.578,3.031,1.1,4.546,1.653l2.271,0.835l1.135,0.418l1.154,0.359
			c1.539,0.479,3.076,0.957,4.611,1.435l2.3,0.713l2.329,0.591c1.551,0.394,3.096,0.787,4.636,1.178
			c1.531,0.431,3.099,0.671,4.641,0.994c1.543,0.318,3.079,0.634,4.605,0.949c0.761,0.174,1.53,0.285,2.296,0.396
			c0.766,0.115,1.53,0.229,2.291,0.343c1.522,0.228,3.034,0.455,4.533,0.68c3.005,0.405,5.986,0.577,8.89,0.912
			c0.728,0.065,1.449,0.171,2.171,0.2c0.722,0.034,1.44,0.068,2.153,0.101c1.428,0.067,2.838,0.134,4.229,0.2
			c0.696,0.033,1.388,0.066,2.074,0.098c0.687,0.036,1.368,0.071,2.046,0.051c1.355-0.007,2.689-0.014,4.001-0.02
			c1.313,0.001,2.605,0.002,3.872,0.002c0.634-0.001,1.262-0.002,1.885-0.003c0.621-0.033,1.236-0.066,1.844-0.098
			c4.866-0.289,9.352-0.39,13.296-0.877c3.949-0.416,7.421-0.642,10.238-1.124c2.827-0.416,5.061-0.695,6.582-0.906
			c1.523-0.205,2.335-0.315,2.335-0.315s-0.795,0.192-2.287,0.552c-1.493,0.354-3.679,0.904-6.478,1.542
			c-2.785,0.723-6.227,1.266-10.175,1.942c-1.976,0.317-4.07,0.755-6.308,0.964c-2.236,0.246-4.587,0.505-7.041,0.775
			c-0.614,0.067-1.235,0.134-1.862,0.202c-0.629,0.036-1.264,0.072-1.905,0.109c-1.284,0.07-2.592,0.142-3.922,0.215
			c-0.94,0.046-1.905,0.094-2.867,0.141c0.057,0.152,0.112,0.301,0.174,0.464c0.372,0.989,0.867,2.172,1.451,3.511
			c0.583,1.339,1.312,2.816,2.128,4.402c0.809,1.591,1.781,3.258,2.825,4.998c1.086,1.717,2.244,3.511,3.564,5.277
			c0.639,0.897,1.355,1.76,2.036,2.662c0.364,0.433,0.73,0.869,1.099,1.306c0.362,0.443,0.728,0.884,1.121,1.307
			c0.385,0.429,0.771,0.86,1.159,1.292c0.392,0.428,0.81,0.833,1.209,1.259c0.791,0.857,1.648,1.655,2.498,2.46
			c0.825,0.831,1.741,1.566,2.603,2.352c0.89,0.755,1.801,1.479,2.69,2.217c0.924,0.696,1.84,1.386,2.746,2.068
			c0.935,0.646,1.859,1.284,2.768,1.911c0.935,0.594,1.854,1.177,2.754,1.749c0.903,0.57,1.828,1.06,2.702,1.588
			c0.868,0.542,1.763,0.973,2.609,1.435c0.851,0.453,1.662,0.92,2.476,1.295c1.614,0.78,3.079,1.557,4.429,2.132
			c1.343,0.589,2.499,1.174,3.486,1.558c0.981,0.401,1.745,0.756,2.271,0.982c0.524,0.238,0.803,0.364,0.803,0.364
			s-0.303-0.041-0.87-0.117c-0.565-0.089-1.402-0.194-2.458-0.38c-1.065-0.155-2.334-0.442-3.788-0.796
			c-1.469-0.313-3.085-0.805-4.853-1.355c-0.893-0.253-1.782-0.622-2.723-0.962c-0.934-0.355-1.91-0.706-2.876-1.154
			c-0.971-0.437-1.978-0.871-2.982-1.369c-0.998-0.509-2.009-1.05-3.039-1.599c-1.001-0.603-2.018-1.216-3.048-1.836
			c-0.998-0.672-2.01-1.354-3.011-2.068c-0.969-0.757-1.979-1.482-2.929-2.287c-0.732-0.652-1.487-1.282-2.214-1.945
			c-4.039,7.388-14.584,27.904-23.392,55.577c89.56,45.547,133.119-3.748,144.358-19.99c10.115-14.617,16.135-31.795,16.952-48.368
			C659.441,274.512,655.041,260.94,646.582,253.273z"/>
		<path id="XMLID_80_" style="fill:#F1F2F2;" d="M468.504,542.199c-12.863-6.089-25.375-14.929-37.349-26.44
			c-25.386-24.404-40.646-53.575-43.494-59.271c-1.629,0.184-3.311,0.284-5.04,0.284c-1.088,0-2.157-0.042-3.208-0.117
			c0.301,9.653-6.897,29.242-23.572,47.522c-12.859,14.095-28.633,24.475-46.884,30.851c-4.433,1.549-8.99,2.843-13.66,3.891
			c-2.088,12.474-11.498,71.791-10.833,123.584c1.138,0.715,3.335,2.021,6.587,3.649c-0.144-16.099-0.181-85.702,9.697-99.445
			c9.399-13.077,35.518-36.309,42.919-42.792c0.907-1.782,1.894-3.518,2.976-5.185c3.609-5.621,8.014-10.607,12.721-15.192
			c2.369-2.28,4.799-4.488,7.323-6.58c2.525-2.089,5.089-4.132,7.786-6.002c1.334-0.954,2.694-1.875,4.097-2.74
			c1.417-0.858,2.82-1.687,4.454-2.331c0.212-0.076,0.43-0.148,0.678-0.204c0.133-0.024,0.252-0.054,0.424-0.06
			c0.075-0.006,0.16-0.01,0.281,0.008l0.164,0.026c0.065,0.016,0.157,0.054,0.231,0.091l0.113,0.063
			c0.033,0.016,0.171,0.139,0.123,0.097l0.056,0.052c0.044,0.046,0.059,0.044,0.128,0.129c0.123,0.15,0.263,0.353,0.304,0.472
			c0.132,0.278,0.196,0.544,0.233,0.794c0.143,1.007-0.022,1.867-0.194,2.718c-0.392,1.681-0.986,3.253-1.674,4.774
			c-0.542,1.187-1.144,2.339-1.771,3.475c0.345,0.24,0.741,0.515,1.189,0.826c1.751,1.203,4.275,2.9,7.333,4.896
			c3.061,1.991,6.654,4.287,10.554,6.666c1.938,1.211,3.981,2.392,6.037,3.631c2.079,1.199,4.19,2.416,6.302,3.634
			c2.137,1.17,4.254,2.386,6.377,3.503c2.129,1.106,4.195,2.26,6.251,3.259c2.052,1.008,4.007,2.048,5.917,2.911
			c1.904,0.877,3.685,1.755,5.365,2.48c1.682,0.725,3.223,1.39,4.59,1.979c1.368,0.589,2.591,1.023,3.583,1.421
			c1.994,0.775,3.134,1.218,3.134,1.218s-1.163-0.377-3.198-1.038c-1.014-0.341-2.264-0.707-3.665-1.218
			c-1.402-0.512-2.983-1.089-4.708-1.719c-1.726-0.632-3.558-1.408-5.518-2.179c-1.967-0.758-3.983-1.687-6.101-2.581
			c-2.123-0.886-4.257-1.924-6.46-2.914c-2.198-1.001-4.389-2.098-6.605-3.153c-2.191-1.102-4.383-2.205-6.54-3.29
			c-2.135-1.127-4.259-2.198-6.276-3.304c-4.058-2.169-7.804-4.272-11.002-6.102c-3.195-1.835-5.838-3.401-7.68-4.518
			c-0.412-0.253-0.778-0.477-1.108-0.68c-0.308,0.479-0.614,0.958-0.932,1.43c-1.631,2.425-3.401,4.748-5.247,7.007
			c1.215,1.98,2.396,3.966,3.549,5.977c1.337,2.306,2.624,4.643,3.875,7.004c1.255,2.359,2.471,4.745,3.619,7.181
			c1.146,2.442,2.249,4.904,3.159,7.564c0.225,0.669,0.436,1.353,0.616,2.078c0.176,0.731,0.337,1.485,0.374,2.419
			c0.002,0.485,0.003,1.008-0.215,1.724c-0.135,0.38-0.27,0.741-0.693,1.24l-0.164,0.187l-0.087,0.098l-0.222,0.203
			c-0.152,0.133-0.311,0.259-0.473,0.377c-0.166,0.12-0.28,0.168-0.425,0.251c-0.28,0.16-0.557,0.267-0.836,0.353
			c-0.559,0.184-1.09,0.248-1.583,0.268c-1.966,0.031-3.439-0.526-4.839-1.098c-1.377-0.604-2.636-1.322-3.834-2.102
			c-1.71-1.124-3.279-2.393-4.756-3.751l0.834,3.158c0.39,1.479,0.745,2.969,1.112,4.455c0.728,2.974,1.425,5.959,2.082,8.961
			c0.122,0.56,0.237,1.122,0.351,1.684c0.03,0.012,0.053,0.021,0.084,0.033c0.505,0.192,1.245,0.474,2.188,0.833
			c1.897,0.714,4.624,1.709,7.92,2.844c3.293,1.144,7.161,2.411,11.326,3.707c2.082,0.65,4.247,1.278,6.443,1.934
			c2.207,0.609,4.442,1.269,6.695,1.854c2.254,0.577,4.501,1.203,6.735,1.713c2.23,0.531,4.422,1.073,6.562,1.509
			c2.136,0.456,4.199,0.917,6.172,1.261c1.971,0.349,3.827,0.755,5.559,0.994c1.729,0.268,3.314,0.513,4.719,0.731
			c1.408,0.196,2.642,0.321,3.655,0.448c2.03,0.24,3.19,0.378,3.19,0.378s-1.166-0.068-3.207-0.187
			c-1.02-0.066-2.263-0.118-3.683-0.23c-1.419-0.134-3.02-0.285-4.767-0.449c-1.752-0.137-3.63-0.431-5.629-0.664
			c-2.001-0.227-4.095-0.565-6.267-0.895c-2.176-0.31-4.406-0.722-6.679-1.122c-2.277-0.379-4.567-0.872-6.87-1.318
			c-2.301-0.453-4.584-0.983-6.843-1.463c-2.246-0.527-4.463-1.03-6.598-1.559c-4.27-1.054-8.243-2.098-11.633-3.054
			c-3.39-0.946-6.203-1.786-8.172-2.396l0.039,0.32c0.028,0.162,0.035,0.437,0.042,0.688l0.01,0.757
			c-0.06,0.495-0.065,0.965-0.213,1.47c-0.199,0.985-0.749,2.024-1.542,2.805c-0.792,0.791-1.833,1.292-2.809,1.469
			c-0.982,0.198-1.939,0.199-2.82,0.058c-0.897-0.112-1.723-0.37-2.526-0.654c-3.183-1.202-5.718-3.299-7.894-5.602
			c-1.067-1.176-2.053-2.413-2.922-3.722c-0.851-1.319-1.649-2.665-2.316-4.072c-0.412-0.819-0.776-1.659-1.116-2.507
			c0.214,1.089,0.413,2.182,0.576,3.285c0.236,1.633,0.41,3.282,0.475,4.965c0.02,1.69,0.016,3.394-0.604,5.247
			c-0.083,0.232-0.167,0.464-0.301,0.702l-0.186,0.353l-0.251,0.352c-0.153,0.236-0.395,0.454-0.632,0.664
			c-0.109,0.111-0.265,0.19-0.407,0.277l-0.22,0.124l-0.111,0.059c-0.076,0.029,0.09-0.022-0.183,0.071l-0.036,0.012l-0.29,0.094
			c-0.057,0.016-0.077,0.031-0.166,0.047l-0.271,0.043c-0.182,0.025-0.367,0.043-0.55,0.054c-0.153-0.004-0.294-0.016-0.442-0.028
			c-0.588-0.047-1.108-0.217-1.587-0.416c-1.894-0.847-3.165-2.215-4.26-3.625c-2.145-2.872-3.374-6.185-4.123-9.527
			c-0.742-3.353-1.007-6.778-0.853-10.162c0.079-2.114,0.308-4.211,0.637-6.287c-8.308,8.002-26.813,26.249-31.028,33.977
			c-4.384,8.037-7.471,69.656-8.374,94.786c7.53,3.145,17.856,6.689,31.022,9.506c28.25,6.045,75.639,9.876,141.472-5.954
			C470.67,659.94,466.957,578.187,468.504,542.199z M313.444,629.365c-3.943,0-7.151-3.208-7.151-7.152
			c0-3.943,3.208-7.151,7.151-7.151c3.943,0,7.151,3.208,7.151,7.151C320.595,626.157,317.387,629.365,313.444,629.365z
			 M324.231,579.651c-3.943,0-7.151-3.208-7.151-7.152c0-3.943,3.208-7.151,7.151-7.151c3.943,0,7.151,3.208,7.151,7.151
			C331.382,576.443,328.174,579.651,324.231,579.651z M373.476,633.117c-3.943,0-7.151-3.208-7.151-7.151
			c0-3.943,3.208-7.151,7.151-7.151c3.943,0,7.151,3.208,7.151,7.151C380.627,629.909,377.419,633.117,373.476,633.117z
			 M377.228,584.809c-3.943,0-7.151-3.208-7.151-7.151c0-3.943,3.208-7.151,7.151-7.151c3.943,0,7.151,3.208,7.151,7.151
			C384.379,581.601,381.171,584.809,377.228,584.809z"/>
		<path id="XMLID_58_" style="fill:#FFD6A1;" d="M248.511,399.748c2.499-4.442,6.023-15.16,4.588-18.623
			c-0.137-0.332-0.176-0.332-0.391-0.332c-3.715,0-9.058,10.305-11.499,17.27l-0.633,1.804l-8.315-1.558
			c-0.001,0-0.002,0.001-0.003,0.001c-0.69,0.623-1.737,1.576-2.99,2.772c-2.323,2.199-5.353,5.22-8.26,8.366
			c-1.461,1.567-2.886,3.169-4.195,4.696c-0.663,0.757-1.285,1.505-1.87,2.218c-0.591,0.71-1.147,1.383-1.641,2.019
			c-0.5,0.633-0.958,1.214-1.364,1.728c-0.394,0.524-0.737,0.982-1.019,1.358c-0.566,0.754-0.889,1.185-0.889,1.185
			s0.265-0.469,0.729-1.29c0.232-0.411,0.514-0.91,0.838-1.483c0.338-0.565,0.719-1.202,1.134-1.897
			c0.41-0.7,0.878-1.443,1.375-2.227c0.493-0.788,1.017-1.617,1.581-2.46c1.111-1.699,2.331-3.49,3.593-5.253
			c2.508-3.539,5.165-6.979,7.228-9.512c1.027-1.27,1.907-2.313,2.529-3.043c0.084-0.096,0.149-0.172,0.223-0.257
			c-0.783-5.244-3.326-16.603-7.846-19.409c-0.99-0.615-1.991-0.715-3.15-0.311c-1.012,0.352-1.729,1.049-2.259,2.193
			c-1.725,3.729-1.265,10.727,0.699,16.788c1.087,3.354,2.015,6.502,2.547,8.353c0.328,1.139-0.538,2.336-1.719,2.255
			c-0.488-0.033-0.896-0.274-1.184-0.883c-1.373-2.898-2.296-4.417-3.964-8.539c-1.643-3.922-3.646-7.257-5.734-8.118
			c-0.53-0.219-1.286-0.373-2.442,0.378c-5.603,3.642-0.436,18.584,2.922,26.135l0.012,0.024c0.451,0.9,0.105,2.038-0.815,2.445
			c-1.439,0.636-2.837-0.717-3.154-1.422c-3.08-6.075-5.26-5.814-5.68-5.851c-0.279-0.021-0.532,0.086-0.721,0.215
			c0.064,20.778,16.573,38.256,20.165,41.812C233.235,434.314,248.511,399.748,248.511,399.748z"/>
		<path id="XMLID_68_" style="fill:#FFD6A1;" d="M345.548,529.059c-1.108,2.936-2.034,5.969-2.738,9.046
			c-0.744,3.062-1.239,6.176-1.41,9.294c-0.172,3.115-0.059,6.239,0.492,9.269c0.269,1.516,0.671,2.999,1.195,4.422
			c0.528,1.417,1.155,2.802,1.976,4.017c0.805,1.204,1.821,2.314,2.896,2.857c0.261,0.131,0.524,0.228,0.745,0.259l0.165,0.034
			c0.02-0.005,0.038-0.002,0.058,0.008l0.033,0.021c0.012,0.009,0.089-0.018,0.13-0.025l0.243-0.059l0.045-0.021
			c0.032-0.017,0.073-0.009,0.104-0.05c0.066-0.061,0.151-0.091,0.223-0.199l0.121-0.132l0.11-0.181
			c0.082-0.109,0.146-0.257,0.212-0.404c0.533-1.207,0.713-2.815,0.811-4.364c0.089-1.573,0.077-3.177-0.002-4.784
			c-0.156-3.215-0.479-6.454-0.917-9.674l-0.254-1.87l1.512,3.882c0.313,0.691,0.602,1.389,0.924,2.071
			c0.652,1.36,1.34,2.7,2.142,3.965c0.771,1.284,1.658,2.487,2.579,3.647c0.948,1.14,1.94,2.232,3.011,3.231
			c1.084,0.982,2.231,1.88,3.445,2.639c1.209,0.76,2.486,1.395,3.786,1.779c1.281,0.376,2.637,0.529,3.644,0.227
			c0.517-0.128,0.881-0.385,1.148-0.682c0.258-0.308,0.47-0.671,0.535-1.191c0.069-0.23,0.04-0.536,0.072-0.795l-0.03-0.386
			c-0.008-0.13,0.001-0.237-0.045-0.45l-0.099-0.563l-0.025-0.141l-0.012-0.07l-0.006-0.035l-0.003-0.018
			c0.006,0.036-0.018-0.106,0.013,0.077l-0.065-0.274l-0.261-1.097c-0.348-1.462-0.727-2.925-1.111-4.39
			c-0.757-2.93-1.559-5.858-2.391-8.78c-1.673-5.838-3.326-11.703-5.094-17.508l-4.508-14.8l8.761,12.814
			c1.404,2.054,2.985,4.016,4.742,5.807c1.75,1.795,3.672,3.43,5.693,4.813c1.008,0.69,2.051,1.307,3.092,1.791
			c1.02,0.471,2.123,0.802,2.823,0.789c0.167-0.001,0.302-0.018,0.373-0.042c0.009-0.002,0.01-0.004,0.018-0.006
			c0-0.01,0.001-0.018,0.001-0.028c-0.005-0.393-0.083-0.949-0.208-1.509c-0.124-0.565-0.286-1.155-0.467-1.747
			c-0.74-2.381-1.736-4.8-2.779-7.186c-1.052-2.389-2.174-4.765-3.32-7.134c-1.154-2.365-2.343-4.719-3.532-7.075
			c-1.201-2.347-2.419-4.7-3.645-7.023l-0.543-1.029l0.727-0.765c2.212-2.328,4.337-4.741,6.297-7.278
			c1.95-2.539,3.785-5.186,5.233-8.013c0.718-1.41,1.377-2.863,1.761-4.347c0.181-0.727,0.32-1.503,0.245-2.116
			c-0.014-0.152-0.049-0.288-0.089-0.378c-0.024-0.076-0.021-0.029-0.004-0.053c0.005-0.001-0.008-0.013-0.016-0.022
			c-0.035,0.004-0.075,0.011-0.113,0.016c-0.15,0.028-0.321,0.077-0.495,0.133c-1.422,0.488-2.844,1.32-4.216,2.128
			c-1.376,0.829-2.724,1.719-4.046,2.646c-2.616,1.894-5.158,3.902-7.562,6.064c-2.401,2.165-4.708,4.432-6.861,6.835
			c-4.328,4.781-8.125,10.014-11.235,15.553c-0.722,1.308-1.409,2.631-2.054,3.97l0.008,0.009c-0.003,0.002-0.014,0.012-0.022,0.019
			C346.799,525.995,346.132,527.514,345.548,529.059z"/>
		<path id="XMLID_72_" style="fill:#FFD6A1;" d="M472.754,465.035c3.985,3.718,8.086,7.938,12.275,12.721
			c9.491,0.894,16.514-6.343,17.903-14.095c0.436-2.429,1.129-10.515-8.228-12.569C479.757,447.803,474.022,461.347,472.754,465.035
			z M480.411,461.056c0.411-0.487,0.905-0.945,1.423-1.417c0.27-0.222,0.553-0.439,0.841-0.658c0.28-0.231,0.589-0.428,0.91-0.613
			c0.318-0.189,0.635-0.389,0.963-0.571l1.032-0.464c0.685-0.323,1.423-0.508,2.138-0.706c0.354-0.115,0.719-0.168,1.081-0.21
			c0.361-0.049,0.715-0.099,1.065-0.133c0.697-0.084,1.382-0.008,2.017,0.002c0.637,0,1.229,0.164,1.77,0.264
			c0.539,0.126,1.031,0.207,1.445,0.395c0.42,0.153,0.776,0.316,1.067,0.443c0.581,0.259,0.895,0.44,0.895,0.44
			s-0.373,0.072-0.993,0.143c-0.309,0.033-0.682,0.082-1.099,0.103c-0.416,0.005-0.888,0.14-1.388,0.196
			c-0.5,0.085-1.038,0.097-1.59,0.249c-0.551,0.137-1.137,0.193-1.717,0.366c-0.576,0.189-1.188,0.287-1.773,0.514
			c-0.583,0.229-1.201,0.378-1.768,0.669l-0.877,0.365c-0.276,0.154-0.563,0.288-0.842,0.432c-0.575,0.258-1.087,0.613-1.628,0.893
			c-0.505,0.332-1.025,0.627-1.486,0.955c-0.469,0.32-0.92,0.625-1.32,0.933c-0.418,0.291-0.779,0.587-1.124,0.837
			c-0.315,0.272-0.629,0.488-0.86,0.689c-0.487,0.4-0.765,0.629-0.765,0.629s0.057-0.368,0.285-0.967
			c0.108-0.303,0.261-0.66,0.46-1.06c0.213-0.387,0.435-0.851,0.754-1.298C479.626,462.009,479.994,461.538,480.411,461.056z"/>
		<path id="XMLID_25_" style="fill:#FFD6A1;" d="M486.334,381.945c-44.62-41.363-88.799-48.879-118.021-47.896
			c-28.37,0.955-48.396,9.828-52.393,11.735c-6.349,44.281-8.959,83.89-9.623,95.258c11.063-5.52,21.611-8.306,31.548-8.306
			c0.159,0,0.316,0.001,0.474,0.002c8.826,0.079,14.96,2.427,18.31,4.162c2.595-7.362,13.08-12.722,25.991-12.722
			c4.122,0,7.995,0.548,11.445,1.531c0,0,8.381,1.895,14.025,9.939c0.343,0.701,0.61,1.423,0.801,2.163
			c3.622-0.57,10.953-1.063,20.961,1.566c9.702,2.548,23.482,8.553,39.333,22.427c1.777-4.355,5.125-9.482,10.273-12.658
			C478.501,425.174,481.682,402.064,486.334,381.945z M372.236,355.329c0,0-0.715,0.062-1.886,0.056
			c-0.29-0.01-0.62,0.02-0.97,0.024c-0.346,0-0.72,0.001-1.12,0.001c-0.803,0.047-1.683,0.015-2.644,0.063
			c-0.948,0.031-1.976,0.065-3.063,0.101c-0.541,0.038-1.093,0.068-1.656,0.081c-0.565,0.042-1.14,0.061-1.726,0.07
			c-0.587,0.019-1.184,0.043-1.792,0.039c-0.606,0.034-1.226,0.014-1.85,0.044c-1.248,0.051-2.524,0.144-3.788,0.345
			c-1.267,0.182-2.525,0.445-3.763,0.722c-1.232,0.298-2.451,0.595-3.617,0.941c-1.173,0.329-2.284,0.72-3.35,1.074
			c-1.059,0.37-2.057,0.74-2.967,1.113c-1.827,0.731-3.304,1.457-4.343,1.959c-1.038,0.51-1.605,0.84-1.605,0.84l-0.257-0.364
			c0,0,2.027-1.773,5.491-3.852c1.723-1.052,3.796-2.194,6.122-3.225c1.159-0.524,2.379-1.027,3.645-1.473
			c1.268-0.44,2.568-0.87,3.897-1.218c1.322-0.37,2.663-0.699,3.998-0.999c0.668-0.146,1.338-0.268,2.001-0.375
			c0.665-0.101,1.329-0.144,1.981-0.206c0.655-0.018,1.3-0.021,1.93-0.003c0.631,0.04,1.247,0.102,1.844,0.168
			c1.194,0.167,2.312,0.379,3.324,0.672c1.016,0.251,1.917,0.624,2.705,0.932c0.779,0.36,1.448,0.671,1.978,0.982
			c1.056,0.635,1.613,1.064,1.613,1.064L372.236,355.329z M444.402,369.369c0,0-0.567-0.329-1.604-0.84
			c-1.039-0.503-2.516-1.228-4.343-1.959c-0.909-0.373-1.908-0.743-2.967-1.113c-1.065-0.354-2.177-0.746-3.35-1.074
			c-1.167-0.345-2.385-0.643-3.617-0.941c-1.238-0.277-2.496-0.54-3.763-0.722c-1.264-0.202-2.54-0.295-3.788-0.345
			c-0.624-0.03-1.244-0.01-1.85-0.044c-0.608,0.004-1.205-0.02-1.792-0.039c-0.586-0.009-1.162-0.028-1.726-0.07
			c-0.563-0.013-1.116-0.043-1.657-0.081c-1.087-0.036-2.114-0.07-3.062-0.101c-0.961-0.048-1.84-0.016-2.644-0.063
			c-0.4,0-0.774-0.001-1.12-0.001c-0.349-0.004-0.68-0.035-0.97-0.025c-1.17,0.006-1.886-0.056-1.886-0.056l-0.135-0.424
			c0,0,0.557-0.429,1.614-1.064c0.53-0.311,1.199-0.621,1.978-0.982c0.788-0.308,1.689-0.681,2.705-0.932
			c1.012-0.293,2.13-0.505,3.324-0.672c0.597-0.066,1.213-0.128,1.844-0.168c0.63-0.018,1.275-0.015,1.93,0.003
			c0.652,0.062,1.316,0.104,1.981,0.206c0.664,0.107,1.334,0.229,2.001,0.375c1.335,0.301,2.676,0.629,3.998,0.999
			c1.328,0.349,2.629,0.778,3.897,1.218c1.266,0.447,2.486,0.95,3.645,1.473c2.326,1.031,4.4,2.173,6.122,3.225
			c3.464,2.079,5.491,3.852,5.491,3.852L444.402,369.369z"/>
		<path id="XMLID_150_" style="opacity:0.19;fill:#919191;" d="M318.928,306.087c0,0-32.284-14.472-50.096-46.756
			c-17.812-32.284,17.596-34.649,32.573-27.805c14.977,6.845,52.529,3.889,62.857-34.249c0,0,77.495,68.313,182.51,66.853
			c0,0-13.411,27.297,7.952,54.665c0,0,19.727,57.229-57.382,40.072l15.29-46.101c0,0-97.965-2.227-134.702-60.115
			C377.93,252.651,328.947,259.331,318.928,306.087z"/>
		<g id="XMLID_147_">
			<path id="XMLID_149_" style="opacity:0.19;fill:#919191;" d="M601.123,428.337c19.404,60.843-30.29,105.905-88.181,108.379
				c-57.891,2.474-111.33-79.663-111.33-79.663c4.948-6.927,4.948-15.339,4.948-15.339l-2.474-2.969c0,0-10.886,9.401-23.256,10.391
				c-12.37,0.99-28.203-10.391-28.203-10.391s40.079,73.23-81.147,86.095c-119.103,12.64-112.592-85.526-112.327-88.968
				C147.854,564.41,293.746,538.2,293.746,538.2l-2.474,12.37c19.429-0.753,36.056-6.553,49.795-14.252
				c2.595-8.755,13.285-37.64,44.155-50.23c0,0,0.19-0.077,0.52-0.212c0.09-0.037,0.178-0.073,0.268-0.109
				c0.605-0.247,1.521-0.62,2.613-1.066c0.187-0.076,0.365-0.149,0.547-0.223c0.096-0.039,0.193-0.079,0.29-0.118
				c1.289-0.526,2.457-1.002,3.511-1.432c0.794-0.324,1.591-0.649,2.364-0.964c0.703-0.287,1.34-0.547,1.91-0.779
				c0.769-0.314,1.478-0.603,2.087-0.851c0.054-0.022,0.105-0.043,0.157-0.064c0.129-0.052,0.252-0.103,0.371-0.151
				c0.157-0.064,0.302-0.123,0.435-0.177c0.063-0.026,0.125-0.051,0.183-0.075c0.201-0.082,0.374-0.153,0.513-0.209
				c0.225-0.092,0.378-0.154,0.452-0.184c0.007-0.003,0.009-0.004,0.014-0.006c0.044-0.018,0.047-0.019,0,0
				c-0.005,0.002-0.009,0.004-0.014,0.006c-0.072,0.029-0.221,0.09-0.452,0.184c-0.144,0.059-0.316,0.129-0.513,0.209
				c-0.06,0.025-0.117,0.048-0.183,0.075c-0.136,0.055-0.28,0.114-0.435,0.177c-0.115,0.047-0.241,0.098-0.371,0.151
				c-0.052,0.021-0.103,0.042-0.157,0.064c-0.567,0.231-1.261,0.514-2.087,0.851c-0.606,0.247-1.248,0.509-1.91,0.779
				c-0.715,0.292-1.502,0.613-2.364,0.964c-1.219,0.497-2.425,0.989-3.511,1.432c-0.095,0.039-0.194,0.079-0.29,0.118
				c-0.187,0.076-0.369,0.15-0.547,0.223c-0.822,0.335-1.697,0.692-2.613,1.066c-0.098,0.04-0.187,0.076-0.268,0.109
				c-0.175,0.072-0.341,0.139-0.52,0.212c0,0-1.236,4.55-3.834,13.27c-0.332,1.115-0.615,2.199-0.857,3.243
				c5.447-6.728,8.217-11.407,8.217-11.407c20.782,39.089,81.147,64.324,81.147,64.324v-14.844
				c11.38,8.412,47.006,17.318,89.559-2.969C641.809,498.442,601.123,428.337,601.123,428.337z"/>
			<path id="XMLID_148_" style="opacity:0.19;fill:#919191;" d="M159.153,435.872c0.003-0.032,0.005-0.064,0.008-0.096
				C159.16,435.776,159.158,435.811,159.153,435.872z"/>
		</g>
		<path id="XMLID_146_" style="fill:#FFD6A1;" d="M315.703,348.648c0,0,78.523-40.53,162.126,31.711c0,0-11.969,34.614-8.715,81.136
			l11.913-10.913c0,0,0.517-46.968,6.938-68.986c0,0-76.704-78.549-172.263-37.728V348.648z"/>
		<path id="XMLID_145_" style="fill:#FFD6A1;" d="M475.832,469.175c0,0,5.59-16.261,21.226-11.347
			C512.694,462.743,482.696,479.118,475.832,469.175z"/>
		<path id="XMLID_144_" style="fill:#FFD6A1;" d="M346.504,523.108c0,0,4.082,33.268,25.606,46.693c0,0-12.444-1.613-20.781-16.634
			c0,0,1.855,28.575-8.721,10.02C332.031,544.632,346.504,523.108,346.504,523.108z"/>
		<path id="XMLID_143_" style="fill:#FFD6A1;" d="M248.237,402.368c0,0-24.753,35.007-30.938,35.007s-21.771-24.132-21.771-24.132
			s2.227,26.739,23.75,41.336C219.279,454.579,245.528,415.47,248.237,402.368z"/>
		<defs>
			<filter id="Adobe_OpacityMaskFilter" filterUnits="userSpaceOnUse" x="329.248" y="353.447" width="42.988" height="44.378">
				<feFlood  style="flood-color:white;flood-opacity:1" result="back"/>
				<feBlend  in="SourceGraphic" in2="back" mode="normal"/>
			</filter>
		</defs>
		
			<mask maskUnits="userSpaceOnUse" x="329.248" y="353.447" width="42.988" height="44.378" id="XMLID_00000009586003363147982230000008175754943770310840_">
			<g id="XMLID_7_" style="filter:url(#Adobe_OpacityMaskFilter);">
				<defs>
					
						<filter id="Adobe_OpacityMaskFilter_00000120520280779888619670000016812907506345101216_" filterUnits="userSpaceOnUse" x="329.248" y="353.447" width="42.988" height="44.378">
						<feFlood  style="flood-color:white;flood-opacity:1" result="back"/>
						<feBlend  in="SourceGraphic" in2="back" mode="normal"/>
					</filter>
				</defs>
				
					<mask maskUnits="userSpaceOnUse" x="329.248" y="353.447" width="42.988" height="44.378" id="XMLID_00000009586003363147982230000008175754943770310840_">
					<g id="XMLID_10_" style="filter:url(#Adobe_OpacityMaskFilter_00000120520280779888619670000016812907506345101216_);">
					</g>
				</mask>
				
					<linearGradient id="XMLID_00000108293706642618627660000014693295934299433908_" gradientUnits="userSpaceOnUse" x1="350.7419" y1="396.6871" x2="350.7419" y2="363.0408">
					<stop  offset="0.0108" style="stop-color:#000000"/>
					<stop  offset="1" style="stop-color:#FFFFFF"/>
				</linearGradient>
				
					<path id="XMLID_9_" style="mask:url(#XMLID_00000009586003363147982230000008175754943770310840_);fill:url(#XMLID_00000108293706642618627660000014693295934299433908_);" d="
					M329.248,397.824l2.593-35.385c0,0,20.477-13.376,39.526-7.5l0.869,0.391l-0.869,40.214L329.248,397.824z"/>
			</g>
		</mask>
		
			<linearGradient id="XMLID_00000170979087868644895500000008955359174491060655_" gradientUnits="userSpaceOnUse" x1="350.7419" y1="396.6871" x2="350.7419" y2="363.0408">
			<stop  offset="0.0108" style="stop-color:#FFD6A1"/>
			<stop  offset="1" style="stop-color:#FFD6A1"/>
		</linearGradient>
		<path id="XMLID_142_" style="fill:url(#XMLID_00000170979087868644895500000008955359174491060655_);" d="M329.248,397.824
			l2.593-35.385c0,0,20.477-13.376,39.526-7.5l0.869,0.391l-0.869,40.214L329.248,397.824z"/>
		<defs>
			
				<filter id="Adobe_OpacityMaskFilter_00000022538199929675784490000007132849153940796807_" filterUnits="userSpaceOnUse" x="404.128" y="359.927" width="42.988" height="44.378">
				<feFlood  style="flood-color:white;flood-opacity:1" result="back"/>
				<feBlend  in="SourceGraphic" in2="back" mode="normal"/>
			</filter>
		</defs>
		
			<mask maskUnits="userSpaceOnUse" x="404.128" y="359.927" width="42.988" height="44.378" id="XMLID_00000039116217598297876980000010101752219844189332_">
			<g id="XMLID_5_" style="filter:url(#Adobe_OpacityMaskFilter_00000022538199929675784490000007132849153940796807_);">
				<defs>
					
						<filter id="Adobe_OpacityMaskFilter_00000020385576123292483430000006047429125806314127_" filterUnits="userSpaceOnUse" x="404.128" y="359.927" width="42.988" height="44.378">
						<feFlood  style="flood-color:white;flood-opacity:1" result="back"/>
						<feBlend  in="SourceGraphic" in2="back" mode="normal"/>
					</filter>
				</defs>
				
					<mask maskUnits="userSpaceOnUse" x="404.128" y="359.927" width="42.988" height="44.378" id="XMLID_00000039116217598297876980000010101752219844189332_">
					<g id="XMLID_14_" style="filter:url(#Adobe_OpacityMaskFilter_00000020385576123292483430000006047429125806314127_);">
					</g>
				</mask>
				
					<linearGradient id="XMLID_00000037679040655649391530000015512529142692161687_" gradientUnits="userSpaceOnUse" x1="428.6713" y1="403.1675" x2="428.6713" y2="369.5212" gradientTransform="matrix(-1 0 0 1 854.2937 0)">
					<stop  offset="0.0108" style="stop-color:#000000"/>
					<stop  offset="1" style="stop-color:#FFFFFF"/>
				</linearGradient>
				
					<path id="XMLID_6_" style="mask:url(#XMLID_00000039116217598297876980000010101752219844189332_);fill:url(#XMLID_00000037679040655649391530000015512529142692161687_);" d="
					M447.117,404.305l-2.593-35.385c0,0-20.477-13.376-39.526-7.5l-0.869,0.39l0.869,40.214L447.117,404.305z"/>
			</g>
		</mask>
		
			<linearGradient id="XMLID_00000046339584011416022550000007544085825853060776_" gradientUnits="userSpaceOnUse" x1="428.6713" y1="403.1675" x2="428.6713" y2="369.5212" gradientTransform="matrix(-1 0 0 1 854.2937 0)">
			<stop  offset="0.0108" style="stop-color:#FFD6A1"/>
			<stop  offset="1" style="stop-color:#FFD6A1"/>
		</linearGradient>
		<path id="XMLID_141_" style="fill:url(#XMLID_00000046339584011416022550000007544085825853060776_);" d="M447.117,404.305
			l-2.593-35.385c0,0-20.477-13.376-39.526-7.5l-0.869,0.39l0.869,40.214L447.117,404.305z"/>
		<path id="XMLID_54_" style="fill:#222222;" d="M649.697,249.836c-7.62-6.905-20.983-24.363-36.46-44.583
			c-40.7-53.17-96.441-125.989-137.383-132.358c-26.196-4.075-77.285,0.393-127.558,19.832
			c-25.828,9.987-47.473,22.438-64.335,37.007c-19.591,16.927-32.105,36.287-37.195,57.544c-4.956,20.699-4.338,40.587,1.836,59.11
			c4.933,14.799,13.399,28.737,25.162,41.426c17.194,18.549,36.061,28.781,41.64,31.568c-9.638,55.591-13.141,110.91-13.792,122.352
			c-8.203-5.964-34.372-25.227-46.302-36.771l-3.091-2.478c3.062-5.228,7.465-17.582,5.165-23.134
			c-0.841-2.03-2.546-3.195-4.677-3.195c-7.229,0-12.97,12.766-15.158,18.426l-3.807-0.714c-0.86-5.396-3.512-18.029-9.88-21.985
			c-2.182-1.354-4.645-1.615-7.123-0.753c-2.218,0.771-3.881,2.328-4.945,4.626c-1.015,2.195-1.461,5.139-1.325,8.755
			c-0.67-0.537-1.357-0.953-2.05-1.239c-1.547-0.639-3.973-1.024-6.741,0.776c-4.812,3.128-5.812,10.296-2.896,20.743
			c-0.295-0.071-0.594-0.12-0.892-0.146c-2.763-0.239-4.533,1.59-5.011,2.155c-0.216,0.254-0.378,0.554-0.483,0.889l-0.156,0.497
			c-0.068,0.218-0.104,0.441-0.106,0.664c-0.269,22.837,17.389,41.638,21.325,45.539c-1.021,0.905-2.025,1.724-2.988,2.435
			l-2.319,1.713l2.094,1.981c0.586,0.554,14.379,13.537,28.181,21.037c-21.02,6.636-40.731,5.792-54.137-2.33
			c-18.103-10.965-23.957-33.919-16.929-66.38l0.036-0.167l-4.576-1.384l-0.063,0.159c-0.772,1.966-18.669,48.566,2.335,86.165
			c12.214,21.865,35.079,35.944,67.959,41.846c10.828,1.943,21.434,2.929,31.523,2.929c8.888,0,17.573-0.768,25.822-2.283
			c-2.736,16.728-11.348,73.756-10.555,123.649l0.019,1.224l0.999,0.707c0.434,0.307,10.848,7.58,32.025,13.956l2.391,11.553
			c-4.206-1.382-10.72-3.051-18.377-3.391c-16.951-0.74-31.322,5.537-41.535,18.169l-3.08,3.809l85.629,2.073l0.266,0.006
			l-9.596-28.188c16.655,3.586,34.96,5.403,54.41,5.403c12.836,0,26.297-0.816,40.013-2.424l-0.643,29.563l84.587-2.046l0.377-0.009
			l-3.08-3.809c-10.225-12.648-25.026-18.815-42.81-17.855c-9.428,0.511-17.266,2.864-21.212,4.271l-3.204-12.016
			c12.135-1.871,24.635-4.373,37.158-7.436l1.933-0.473l-0.098-2.006c-0.18-3.709-4.372-91.113-2.959-130.399
			c3.5,1.467,7.02,2.734,10.466,3.767c9.111,2.732,18.478,4.118,27.843,4.118c14.013,0,28.348-3.091,42.608-9.188
			c31.941-13.656,51.421-33.021,57.899-57.557c5.903-22.361-0.386-44.82-6.701-59.724c-6.789-16.025-14.867-26.73-15.208-27.178
			l-0.109-0.142l-3.929,2.772l0.098,0.15c22.001,33.675,7.255,62.727-13.882,78.688c-22.713,17.15-59.288,23.665-82.549,2.111
			c8.917-1.291,16.251-8.547,17.905-17.779c1.605-8.959-3.026-15.992-11.799-17.919c-4.155-0.911-8.084-0.809-11.682,0.308
			c-0.786-26.218,3.284-54.284,12.1-83.43c25.024,12.599,48.692,18.987,70.347,18.986c7.578,0,15.017-0.787,22.111-2.337
			c29.457-6.44,47.222-24.529,56.94-38.571C667.523,309.712,669.438,267.727,649.697,249.836z M262.525,705.208
			c8.901-8.931,20.342-13.162,34.018-12.586c11.721,0.49,20.901,4.523,20.992,4.563l4.31,1.94l-3.721-17.984
			c1.627,0.439,3.284,0.865,4.934,1.267l8.329,24.466L262.525,705.208z M520.784,303.587c0.368,0.331,0.741,0.654,1.114,0.977
			c0.31,0.269,0.62,0.538,0.931,0.814c0.637,0.54,1.307,1.049,1.956,1.542c0.328,0.249,0.655,0.498,0.985,0.755
			c1.007,0.717,2.042,1.416,3.023,2.076l3.057,1.841l0.324,0.173c0.919,0.49,1.823,0.972,2.719,1.429
			c0.784,0.389,1.574,0.741,2.337,1.081l0.649,0.29c0.82,0.38,1.645,0.691,2.443,0.991l0.448,0.169
			c0.275,0.099,0.545,0.201,0.813,0.302c0.66,0.249,1.284,0.483,1.919,0.663c1.797,0.559,3.404,1.047,4.864,1.358
			c1.305,0.318,2.669,0.635,3.801,0.799c0.724,0.128,1.346,0.217,1.848,0.29c0.231,0.033,0.436,0.063,0.618,0.091l2.12,0.287
			l-1.955-0.888c-0.17-0.073-0.366-0.159-0.585-0.257c-0.46-0.204-1.025-0.455-1.693-0.727c-0.583-0.227-1.242-0.532-1.94-0.856
			c-0.483-0.224-0.995-0.461-1.54-0.7c-0.899-0.383-1.855-0.859-2.867-1.363c-0.502-0.25-1.02-0.508-1.557-0.767
			c-0.582-0.268-1.156-0.58-1.763-0.911c-0.232-0.126-0.466-0.253-0.701-0.378c-0.265-0.145-0.534-0.286-0.807-0.43
			c-0.591-0.31-1.202-0.631-1.795-1.002c-0.371-0.224-0.751-0.441-1.134-0.661c-0.515-0.294-1.047-0.599-1.565-0.926l-2.748-1.744
			l-2.761-1.907l-2.738-2.063c-0.355-0.295-0.713-0.587-1.073-0.88c-0.54-0.441-1.082-0.883-1.611-1.332
			c-0.31-0.284-0.628-0.561-0.947-0.837c-0.553-0.482-1.126-0.98-1.653-1.512l-0.253-0.239c-0.752-0.71-1.529-1.445-2.237-2.214
			c-0.181-0.192-0.365-0.38-0.549-0.569c-0.223-0.228-0.444-0.455-0.657-0.687l-1.161-1.294c-0.407-0.437-0.788-0.899-1.116-1.3
			l-1.093-1.299c-0.265-0.352-0.536-0.698-0.806-1.043c-0.412-0.526-0.839-1.071-1.229-1.618c-1.355-1.814-2.546-3.669-3.553-5.262
			c-0.967-1.611-1.977-3.331-2.819-4.988c-0.95-1.846-1.605-3.2-2.123-4.391c-0.648-1.487-1.108-2.599-1.447-3.503l-0.085-0.224
			l8.452-0.454l8.899-0.977c1.613-0.151,3.14-0.418,4.617-0.676c0.578-0.101,1.145-0.2,1.706-0.29l1.629-0.277
			c3.304-0.561,6.159-1.045,8.556-1.667c1.912-0.436,3.542-0.832,4.852-1.15c0.611-0.148,1.155-0.28,1.629-0.393l2.287-0.552
			l-0.068-0.364l-2.336,0.315c-0.493,0.069-1.06,0.144-1.699,0.229c-1.325,0.176-2.973,0.396-4.889,0.678
			c-1.926,0.33-4.118,0.536-6.654,0.774c-1.14,0.107-2.332,0.219-3.575,0.35c-2.792,0.345-5.876,0.497-9.141,0.657
			c-1.346,0.066-2.729,0.134-4.142,0.219l-1.834,0.098l-1.885,0.003l-3.873-0.002l-4.005,0.02c-0.676,0.02-1.364-0.017-2.032-0.051
			l-8.457-0.399c-0.459-0.019-0.928-0.07-1.383-0.12c-0.259-0.028-0.518-0.056-0.774-0.079c-1.233-0.142-2.505-0.257-3.735-0.369
			c-1.684-0.153-3.425-0.31-5.148-0.542l-6.836-1.024c-0.747-0.108-1.521-0.22-2.274-0.393l-4.605-0.949
			c-0.478-0.1-0.957-0.192-1.436-0.284c-1.053-0.202-2.141-0.411-3.197-0.708l-6.956-1.767l-8.056-2.503l-3.406-1.254
			c-0.543-0.198-1.087-0.393-1.631-0.587c-0.958-0.342-1.949-0.695-2.907-1.063l-6.675-2.788c-0.47-0.205-0.931-0.427-1.392-0.649
			c-0.259-0.124-0.517-0.249-0.776-0.37l-4.318-2.055c-0.866-0.418-1.725-0.882-2.556-1.331c-0.546-0.295-1.091-0.59-1.637-0.872
			c-0.418-0.224-0.839-0.443-1.26-0.662c-0.952-0.495-1.938-1.007-2.864-1.574l-4.015-2.343c-0.577-0.324-1.177-0.694-1.948-1.199
			l-1.919-1.235c-4.639-2.954-9.29-6.272-14.216-10.14l-3.198-2.595c-0.604-0.489-1.193-1.004-1.762-1.502
			c-0.424-0.371-0.845-0.739-1.271-1.097c-1.442-1.2-2.792-2.447-4.097-3.653c-0.519-0.48-1.033-0.954-1.541-1.415
			c-0.568-0.539-1.118-1.081-1.662-1.615c-0.301-0.296-0.6-0.59-0.898-0.88c-0.817-0.788-1.627-1.599-2.409-2.414l-2.263-2.323
			l-2.078-2.255c-2.7-2.985-4.95-5.609-6.686-7.799c-1.561-1.948-2.991-3.816-4.028-5.261c-0.883-1.224-1.329-1.919-1.333-1.926
			l-0.322,0.184c0.004,0.007,0.38,0.751,1.142,2.073l0.111,0.19c0.791,1.355,1.874,3.21,3.419,5.478
			c1.869,2.811,3.928,5.636,6.118,8.394c2.348,3.032,5.235,6.373,8.826,10.216c2.666,2.776,6.768,6.941,11.578,11.032
			c0.735,0.669,1.528,1.311,2.294,1.931c0.342,0.277,0.686,0.555,1.03,0.84c0.403,0.32,0.802,0.649,1.203,0.98
			c0.725,0.598,1.476,1.217,2.256,1.787c2.104,1.591,4.724,3.571,7.423,5.34c4.868,3.358,10.406,6.658,16.463,9.812l4.42,2.148
			c0.264,0.126,0.526,0.254,0.789,0.383c0.477,0.234,0.954,0.468,1.442,0.686l6.844,2.922c1.005,0.395,2.035,0.772,3.031,1.137
			c0.544,0.199,1.088,0.398,1.632,0.602l3.518,1.267l8.316,2.511l7.166,1.76c2.223,0.538,4.49,0.94,6.682,1.328
			c0.951,0.169,1.899,0.336,2.838,0.514c0.786,0.159,1.588,0.256,2.375,0.352l7.415,0.929c0.25,0.032,0.499,0.064,0.754,0.089
			l7.957,0.54c0.262,0.013,0.524,0.031,0.786,0.049c0.472,0.032,0.96,0.066,1.441,0.067l8.621,0.063
			c0.681,0.008,1.386,0.017,2.093-0.031l0.258-0.013c0.018,0.153,0.038,0.309,0.062,0.472c0.147,1.082,0.346,2.386,0.698,3.842
			c0.359,1.608,0.823,3.255,1.379,4.892c0.533,1.61,1.271,3.441,2.259,5.602c0.861,1.765,1.921,3.848,3.256,5.922
			c1.292,2.066,2.719,4.043,4.243,5.879l0.057,0.068c0.718,0.861,1.459,1.75,2.258,2.58c-3.309,5.938-11.709,21.855-19.763,43.91
			c-3.927,10.752-7.303,21.749-10.036,32.691c-19.606-17.739-40.706-30.677-62.716-38.457c-18.324-6.477-37.346-9.432-56.54-8.794
			c-25.306,0.852-44.055,7.747-51.238,10.823c6.244-41.814,14.083-75.348,23.301-99.677c2.192-0.218,5.035-0.548,7.803-1.165
			l1.998-0.424l3.866-1.062l3.683-1.254l3.456-1.411c0.441-0.192,0.87-0.4,1.295-0.607l0.334-0.162
			c1.906-0.871,3.599-1.843,5.237-2.784l0.64-0.368l2.464-1.613c0.68-0.449,1.469-0.983,2.171-1.538
			c0.294-0.225,0.579-0.441,0.856-0.65c0.984-0.744,1.834-1.387,2.516-2.02c0.619-0.535,1.135-1.006,1.55-1.385
			c0.188-0.172,0.356-0.325,0.506-0.46l1.738-1.616l-2.105,1.111c-0.18,0.099-0.388,0.211-0.622,0.336
			c-0.49,0.263-1.091,0.587-1.78,0.98l-0.798,0.449l-0.912,0.451c-0.417,0.201-0.847,0.424-1.297,0.658
			c-0.24,0.125-0.486,0.252-0.743,0.383c-0.755,0.411-1.596,0.79-2.323,1.107l-2.584,1.19c-0.477,0.192-0.962,0.392-1.456,0.596
			c-1.426,0.588-2.9,1.196-4.485,1.733c-0.238,0.083-0.476,0.171-0.715,0.26c-0.296,0.11-0.593,0.221-0.893,0.321l-3.378,1.062
			l-3.544,0.952l-3.68,0.819l-1.888,0.34c-2.271,0.419-4.788,0.747-7.694,1.005c-0.523,0.045-1.046,0.079-1.569,0.112l-0.883-0.35
			l-0.163,0.413c-0.427,0.024-0.852,0.047-1.269,0.069c-0.002,0-0.005,0-0.007,0c-0.532,0-1.063,0.018-1.594,0.035
			c-0.747,0.025-1.518,0.051-2.28,0.023c-2.701,0.016-5.331-0.164-7.541-0.33c-2.942-0.272-5.115-0.533-7.047-0.847
			c-2.339-0.345-4.491-0.776-6.286-1.153c-1.926-0.416-3.706-0.838-5.287-1.254l-0.993-0.276c-1.174-0.326-2.188-0.607-3.06-0.885
			l-0.463-0.146c-0.907-0.286-1.623-0.512-2.131-0.693l-2.056-0.724l0.966,0.725c0.011,0.008,1.123,0.838,3.189,1.986
			c1.808,1.021,4.84,2.56,9.021,4.092c2.338,0.834,4.356,1.458,6.348,1.961c2.157,0.573,4.61,1.075,7.295,1.493l0.562,0.078
			c1.089,0.151,2.215,0.308,3.35,0.392l2.008,0.176l2.024,0.088c0.694,0.038,1.385,0.055,2.056,0.046l1.343-0.004
			c-7.061,19.168-13.348,43.919-18.69,73.581c-6.796-3.565-23.705-13.387-38.982-29.866c-25.767-27.796-34.462-60.139-25.844-96.133
			c9.028-37.705,44.037-70.085,98.578-91.175c49.44-19.116,99.492-23.541,125.077-19.564c39.031,6.071,96.36,80.968,134.297,130.528
			c16.259,21.242,29.102,38.021,37.047,45.22c8.418,7.629,12.796,21.148,12.009,37.089c-0.815,16.54-6.824,33.683-16.92,48.272
			c-7.82,11.302-31.393,38.747-75.401,38.745c-18.946,0-41.688-5.091-68.579-18.743C506.263,331.495,516.613,311.24,520.784,303.587
			z M347.669,524.615l0.147-0.111l-0.061-0.067c0.608-1.257,1.279-2.551,1.994-3.847c3.074-5.475,6.846-10.697,11.211-15.52
			c2.029-2.264,4.268-4.496,6.846-6.821c2.261-2.032,4.729-4.011,7.544-6.049c1.411-0.99,2.731-1.853,4.034-2.638
			c1.291-0.76,2.754-1.622,4.179-2.111c0.176-0.056,0.314-0.095,0.423-0.118c0.024,0.074,0.043,0.168,0.052,0.267
			c0.061,0.494-0.016,1.145-0.24,2.048c-0.41,1.585-1.149,3.135-1.747,4.308c-1.253,2.446-2.91,4.983-5.215,7.985
			c-1.807,2.34-3.863,4.716-6.284,7.264l-0.819,0.861l0.604,1.147c1.134,2.148,2.326,4.445,3.644,7.02l0.124,0.246
			c1.128,2.235,2.294,4.545,3.407,6.826c1.381,2.856,2.405,5.054,3.318,7.129c0.931,2.129,1.988,4.646,2.771,7.166
			c0.2,0.653,0.352,1.22,0.464,1.732c0.109,0.495,0.18,0.97,0.198,1.348c-0.052,0.006-0.119,0.011-0.205,0.011
			c-0.643-0.007-1.685-0.284-2.741-0.771c-0.973-0.453-2.004-1.051-3.066-1.776c-1.984-1.358-3.89-2.969-5.665-4.79
			c-1.686-1.719-3.275-3.665-4.722-5.782l-9.444-13.814l4.86,15.959c1.451,4.763,2.846,9.646,4.196,14.366l0.898,3.138
			c0.88,3.088,1.661,5.959,2.389,8.776c0.369,1.408,0.758,2.907,1.11,4.386l0.261,1.097l0.196,1.021
			c0.032,0.146,0.034,0.233,0.037,0.327l0.035,0.447c-0.013,0.105-0.017,0.218-0.02,0.331c-0.005,0.163-0.009,0.317-0.051,0.465
			c-0.052,0.41-0.204,0.748-0.49,1.089c-0.284,0.316-0.629,0.521-1.063,0.628c-0.881,0.265-2.138,0.183-3.538-0.227
			c-1.181-0.349-2.439-0.942-3.74-1.759c-1.131-0.707-2.281-1.588-3.417-2.617c-0.964-0.899-1.943-1.95-2.992-3.211
			c-1.085-1.367-1.9-2.519-2.568-3.631c-0.873-1.377-1.597-2.833-2.131-3.946c-0.194-0.408-0.375-0.823-0.556-1.239
			c-0.121-0.277-0.242-0.553-0.363-0.82l-2.079-5.339l0.465,3.419c0.461,3.395,0.769,6.644,0.915,9.658
			c0.085,1.737,0.085,3.296,0.001,4.763c-0.091,1.442-0.257,3.08-0.803,4.318c-0.06,0.135-0.117,0.262-0.193,0.365l-0.088,0.152
			l-0.138,0.154c-0.029,0.043-0.06,0.065-0.103,0.095c-0.026,0.018-0.051,0.036-0.085,0.067l-0.306,0.087
			c-0.014,0.002-0.031,0.007-0.063,0.014c-0.039-0.017-0.076-0.023-0.108-0.023c-0.004,0-0.007,0-0.011,0l-0.147-0.03
			c-0.186-0.026-0.424-0.109-0.688-0.241c-0.931-0.47-1.934-1.462-2.826-2.795c-0.72-1.067-1.342-2.33-1.956-3.977
			c-0.522-1.416-0.921-2.893-1.186-4.392c-0.508-2.795-0.673-5.898-0.489-9.225c0.163-2.981,0.636-6.097,1.405-9.263
			c0.691-3.017,1.61-6.052,2.731-9.022C346.267,527.682,346.904,526.207,347.669,524.615z M349.038,568.273L349.038,568.273
			L349.038,568.273L349.038,568.273z M303.309,568.549c7.459-10.377,26.271-27.811,37.189-37.598
			c-0.061,0.186-0.121,0.371-0.181,0.557c-0.086,0.263-0.171,0.526-0.26,0.794c-0.317,1.017-0.632,2.132-0.962,3.41
			c-4.977,4.713-29.502,28.179-34.687,37.684c-5.226,9.581-8.145,79.96-8.704,94.756c-0.512-0.23-1.003-0.455-1.483-0.678
			C294.081,652.973,293.888,581.657,303.309,568.549z M307.34,574.996c4.164-7.634,22.474-25.712,30.598-33.55
			c-0.304,2.031-0.486,3.922-0.555,5.763c-0.158,3.487,0.13,6.922,0.857,10.211c0.869,3.879,2.229,7.018,4.158,9.601
			c1.026,1.321,2.342,2.791,4.335,3.682c0.415,0.173,0.977,0.378,1.672,0.433c0.141,0.012,0.276,0.022,0.438,0.026
			c0.188-0.011,0.379-0.03,0.569-0.056l0.276-0.044c0.072-0.014,0.107-0.026,0.142-0.039l0.376-0.122
			c0.09-0.031,0.16-0.054,0.21-0.085l0.001,0.002l0.429-0.241c0.123-0.073,0.251-0.147,0.346-0.244
			c0.219-0.195,0.492-0.437,0.66-0.696l0.264-0.374l0.184-0.349c0.142-0.253,0.229-0.495,0.315-0.733
			c0.652-1.95,0.631-3.812,0.614-5.313c-0.06-1.553-0.216-3.184-0.477-4.985c-0.076-0.513-0.162-1.045-0.264-1.618
			c0.152,0.333,0.302,0.648,0.452,0.948c0.594,1.25,1.333,2.551,2.33,4.095c0.828,1.247,1.816,2.506,2.942,3.746
			c2.649,2.802,5.179,4.597,7.967,5.648c0.776,0.275,1.623,0.545,2.558,0.662c0.957,0.154,1.929,0.134,2.883-0.059
			c1.075-0.195,2.134-0.749,2.906-1.519c0.799-0.787,1.38-1.844,1.589-2.885c0.112-0.382,0.146-0.747,0.179-1.1
			c0.012-0.132,0.025-0.265,0.042-0.425l-0.01-0.759c-0.007-0.252-0.014-0.538-0.043-0.705l-0.004-0.035
			c1.763,0.543,4.492,1.36,7.902,2.312c3.408,0.961,7.433,2.018,11.639,3.056c1.524,0.378,3.056,0.734,4.677,1.111l1.927,0.449
			c0.793,0.169,1.588,0.344,2.386,0.519c1.457,0.32,2.964,0.65,4.459,0.944c0.711,0.138,1.42,0.28,2.128,0.422
			c1.558,0.312,3.17,0.634,4.745,0.897l1.184,0.209c1.903,0.339,3.702,0.657,5.499,0.913l1.079,0.165
			c1.812,0.278,3.523,0.542,5.193,0.731c0.709,0.083,1.402,0.172,2.08,0.261c1.245,0.162,2.422,0.315,3.554,0.404l4.77,0.449
			c0.931,0.074,1.787,0.121,2.553,0.164c0.403,0.023,0.781,0.044,1.134,0.067l3.207,0.188l0.033-0.37l-3.189-0.378
			c-0.354-0.044-0.736-0.088-1.142-0.135c-0.755-0.087-1.596-0.185-2.509-0.312l-4.722-0.731c-1.109-0.153-2.263-0.373-3.483-0.607
			c-0.675-0.129-1.364-0.261-2.069-0.386c-1.642-0.287-3.327-0.649-5.111-1.034l-1.055-0.227c-1.761-0.358-3.521-0.781-5.384-1.227
			l-1.174-0.281c-1.534-0.35-3.102-0.763-4.619-1.161c-0.703-0.185-1.407-0.37-2.111-0.55c-1.442-0.375-2.898-0.786-4.305-1.184
			c-0.799-0.225-1.594-0.451-2.382-0.668l-1.884-0.56c-1.58-0.468-3.073-0.91-4.556-1.373c-4.109-1.279-8.024-2.56-11.321-3.706
			c-3.486-1.2-6.229-2.208-7.915-2.842l-2.177-0.829c-0.108-0.53-0.216-1.06-0.332-1.588c-0.628-2.869-1.309-5.802-2.084-8.966
			l-0.279-1.135c-0.272-1.11-0.544-2.219-0.834-3.322l-0.674-2.552c1.45,1.297,2.866,2.396,4.315,3.347
			c1.339,0.873,2.602,1.565,3.865,2.119c1.477,0.603,2.961,1.134,4.916,1.112c0.616-0.025,1.135-0.114,1.63-0.277
			c0.334-0.103,0.611-0.22,0.872-0.369l0.114-0.062c0.103-0.055,0.202-0.108,0.328-0.199c0.168-0.121,0.332-0.252,0.491-0.391
			l0.234-0.216l0.255-0.288c0.457-0.539,0.6-0.942,0.729-1.306c0.228-0.749,0.225-1.297,0.223-1.786
			c-0.039-0.968-0.209-1.744-0.38-2.456c-0.159-0.642-0.357-1.307-0.621-2.093c-0.927-2.71-2.07-5.245-3.167-7.582
			c-1.052-2.235-2.238-4.586-3.623-7.189c-1.335-2.518-2.603-4.811-3.878-7.009c-1.111-1.936-2.282-3.91-3.483-5.869
			c1.998-2.451,3.691-4.715,5.174-6.918c0.279-0.414,0.549-0.834,0.819-1.255l0.017-0.026l0.954,0.586
			c2.194,1.33,4.923,2.936,7.684,4.52c3.956,2.264,7.556,4.261,11.005,6.104c1.304,0.715,2.622,1.4,4.018,2.125
			c0.749,0.389,1.504,0.781,2.264,1.182l6.544,3.291c0.777,0.37,1.551,0.746,2.324,1.12c1.404,0.681,2.856,1.384,4.285,2.035
			c0.77,0.347,1.532,0.699,2.288,1.048c1.436,0.663,2.793,1.29,4.175,1.868c0.729,0.307,1.445,0.62,2.152,0.927
			c1.369,0.596,2.661,1.158,3.954,1.655c0.698,0.275,1.379,0.55,2.045,0.819c1.215,0.491,2.364,0.954,3.478,1.362l4.707,1.72
			c0.92,0.335,1.78,0.609,2.538,0.852c0.404,0.128,0.782,0.249,1.134,0.367l3.198,1.038l0.125-0.349l-3.133-1.218
			c-0.346-0.139-0.72-0.283-1.119-0.435c-0.736-0.283-1.571-0.602-2.459-0.984l-4.589-1.979c-1.079-0.465-2.192-0.991-3.37-1.547
			c-0.649-0.306-1.313-0.619-1.993-0.933c-1.247-0.564-2.498-1.194-3.82-1.862c-0.687-0.347-1.384-0.698-2.092-1.046
			c-1.327-0.645-2.631-1.34-4.012-2.077c-0.739-0.394-1.483-0.79-2.234-1.181c-1.36-0.715-2.743-1.486-4.081-2.231
			c-0.763-0.425-1.526-0.85-2.29-1.268l-6.299-3.632c-0.726-0.438-1.45-0.868-2.168-1.294c-1.344-0.799-2.613-1.553-3.868-2.336
			c-3.301-2.013-6.752-4.192-10.549-6.662c-2.684-1.752-5.287-3.489-7.329-4.893l-1.052-0.731c0.686-1.247,1.227-2.311,1.697-3.341
			c0.794-1.755,1.329-3.283,1.687-4.813c0.162-0.805,0.347-1.717,0.196-2.783c-0.047-0.321-0.126-0.59-0.241-0.827
			c-0.053-0.155-0.214-0.383-0.336-0.529c-0.056-0.069-0.084-0.092-0.111-0.116l-0.024,0.028c-0.004-0.017-0.009-0.033-0.017-0.048
			l0.007-0.013l-0.034-0.031c-0.063-0.083-0.168-0.138-0.181-0.144l-0.12-0.066c-0.073-0.036-0.183-0.083-0.285-0.108l-0.166-0.026
			c-0.137-0.021-0.236-0.018-0.314-0.011c-0.153,0.005-0.266,0.027-0.381,0.049l-0.078,0.015c-0.271,0.061-0.506,0.141-0.706,0.212
			c-1.611,0.635-2.983,1.437-4.483,2.345c-1.299,0.802-2.643,1.7-4.105,2.746c-2.895,2.006-5.567,4.165-7.798,6.012
			c-2.356,1.952-4.755,4.107-7.334,6.59c-5.339,5.201-9.509,10.181-12.747,15.224c-1.033,1.59-2.032,3.33-2.97,5.17
			c-7.74,6.781-33.566,29.785-42.92,42.8c-9.918,13.797-9.86,84.376-9.734,99.25c-3.099-1.562-5.188-2.808-6.215-3.45
			c-0.652-51.806,8.84-111.528,10.811-123.327c4.642-1.045,9.203-2.347,13.56-3.869c18.28-6.386,34.08-16.784,46.96-30.902
			c15.836-17.359,23.843-36.942,23.626-47.448c1.045,0.069,2.034,0.103,3.017,0.103c1.64,0,3.299-0.091,4.932-0.271
			c2.955,5.893,18.219,34.93,43.473,59.207c11.893,11.432,24.437,20.321,37.287,26.421c-1.517,35.679,2.04,114.827,2.79,130.786
			c-65.777,15.794-113.107,11.937-141.24,5.917c-11.19-2.396-21.575-5.573-30.871-9.447
			C300.054,640.134,303.157,582.664,307.34,574.996z M479.27,449.047c-5.776,3.602-8.812,9.24-10.155,12.448
			c-16.264-14.184-30.294-19.954-39.214-22.297c-5.949-1.563-10.964-2.021-14.801-2.021c-2.581,0-4.63,0.207-6.07,0.426
			c-0.191-0.694-0.451-1.38-0.786-2.061c-5.62-8.01-14.051-9.994-14.126-10.01c-3.584-1.021-7.452-1.539-11.495-1.539
			c-12.628,0-23.31,5.19-26.094,12.646c-3.623-1.845-9.675-4.01-18.206-4.087l-0.476-0.002c-9.832,0-20.377,2.753-31.344,8.182
			c0.679-11.545,3.298-50.927,9.588-94.825c3.969-1.883,24.018-10.725,52.23-11.674c29.154-0.978,73.258,6.517,117.809,47.774
			C480.742,405.339,478.435,427.892,479.27,449.047z M382.622,428.817c11.912,0,21.976,5.339,21.976,11.659
			c0,6.319-10.064,11.658-21.976,11.658c-11.912,0-21.976-5.339-21.976-11.658C360.646,434.156,370.71,428.817,382.622,428.817z
			 M355.913,441.821c0.861,6.857,8.241,12.511,18.853,14.442c0.661,7.516-5.937,26.795-22.352,44.788
			c-16.083,17.632-52.864,45.447-118.51,33.664c-31.378-5.632-53.108-18.897-64.587-39.427c-7.453-13.33-10.526-29.564-9.142-48.276
			c2.477,20.654,13.044,31.147,21.616,36.339c7.98,4.834,18.216,7.389,29.601,7.389c23.295-0.001,49.661-10.385,70.53-27.776
			c25.38-21.15,44.431-25.59,55.973-25.59C347.613,437.382,353.684,440.448,355.913,441.821z M409.233,442.462
			c2.73-0.462,9.868-1.175,19.807,1.498c12.216,3.287,31.338,12.46,53.064,37.493c23.869,27.501,66.002,22.891,92.945,2.545
			c12.928-9.762,21.865-22.752,25.165-36.575c1.385-5.801,1.797-11.789,1.229-17.818c5.702,14.075,11.084,34.621,5.759,54.768
			c-6.084,23.013-24.631,41.292-55.126,54.33c-41.47,17.728-81.043,8.912-117.624-26.208
			c-23.234-22.307-37.834-48.743-41.922-56.664C401.721,453.647,408.095,448.546,409.233,442.462z M472.969,464.982
			c1.461-4.181,7.181-16.902,21.696-13.708c9.196,2.018,8.513,9.967,8.085,12.355c-1.347,7.526-8.291,14.797-17.629,13.949
			C481.131,473.027,477.043,468.79,472.969,464.982z M222.616,464.522c0.606-0.522,1.361-1.172,2.168-1.924l1.382-1.296l1.479-1.471
			c0.72-0.697,1.429-1.466,2.18-2.281c0.342-0.371,0.691-0.75,1.055-1.137l1.882-2.181c0.498-0.579,1.013-1.177,1.495-1.81
			l1.702-2.161c0.38-0.473,0.739-0.98,1.086-1.471c0.192-0.271,0.384-0.543,0.583-0.815c0.192-0.273,0.388-0.544,0.585-0.816
			c0.357-0.493,0.725-1.002,1.067-1.526l1.559-2.417c0.749-1.103,1.413-2.275,2.055-3.409c0.29-0.512,0.579-1.023,0.877-1.529
			c0.082-0.146,0.166-0.291,0.25-0.436c0.153-0.264,0.305-0.527,0.446-0.798l1.851-3.693c0.07-0.141,0.14-0.28,0.21-0.419
			c0.131-0.26,0.262-0.518,0.384-0.784l1.511-3.52c0.595-1.297,1.039-2.557,1.469-3.775l0.196-0.555
			c0.165-0.484,0.335-0.95,0.498-1.4c0.294-0.808,0.572-1.571,0.77-2.296l1.529-5.404l-0.353-0.114l-1.917,5.269
			c-0.244,0.689-0.572,1.419-0.919,2.192c-0.197,0.439-0.401,0.892-0.6,1.36l-0.236,0.539c-0.508,1.162-1.034,2.363-1.71,3.59
			l-1.74,3.357c-0.137,0.246-0.283,0.49-0.43,0.734l-2.315,3.878c-0.152,0.249-0.318,0.492-0.484,0.735
			c-0.094,0.137-0.187,0.275-0.277,0.41c-0.331,0.478-0.656,0.964-0.981,1.452c-0.699,1.048-1.423,2.132-2.225,3.142l-1.692,2.244
			c-0.362,0.475-0.754,0.939-1.132,1.388c-0.214,0.253-0.426,0.506-0.631,0.757c-0.214,0.249-0.421,0.502-0.629,0.754
			c-0.366,0.446-0.745,0.906-1.141,1.329l-1.804,1.975c-0.506,0.573-1.044,1.113-1.564,1.634l-1.956,1.957
			c-0.38,0.348-0.749,0.694-1.111,1.033c-0.767,0.719-1.492,1.398-2.218,2.003l-1.206,1.037l-1.705,1.392
			c-0.785,0.631-1.484,1.15-2.102,1.608l-0.203,0.151c-0.324,0.233-0.608,0.435-0.856,0.609c-1.076-0.917-2.149-1.852-3.122-2.72
			c16.212-13.646,30.206-43.016,34.276-52.091l2.139,1.71c11.89,11.482,36.102,29.398,46.214,36.749
			c-6.313,3.807-12.846,8.514-19.424,13.995c-10.191,8.493-21.962,15.435-34.048,20.078c-7.874-3.54-16.464-9.892-22.351-14.66
			L222.616,464.522z M206.401,416.71c0.468-0.207,0.824-0.594,1.002-1.089c0.188-0.523,0.153-1.109-0.104-1.624
			c-4.432-9.965-7.874-22.729-2.991-25.904c1.084-0.704,1.782-0.563,2.27-0.362c1.799,0.742,3.747,3.516,5.633,8.017
			c1.169,2.889,1.972,4.499,2.821,6.203c0.364,0.729,0.735,1.475,1.147,2.345c0.296,0.623,0.734,0.946,1.339,0.987
			c0.592,0.039,1.157-0.21,1.542-0.686c0.41-0.507,0.548-1.182,0.368-1.806c-0.575-1.998-1.484-5.07-2.549-8.358
			c-2.04-6.296-2.331-13.144-0.707-16.653c0.507-1.096,1.19-1.762,2.151-2.096c1.1-0.383,2.05-0.291,2.991,0.294
			c4.229,2.625,6.852,13.258,7.748,19.194l-0.169,0.194c-0.575,0.675-1.463,1.725-2.532,3.047c-2.385,2.929-5.023,6.399-7.235,9.52
			c-1.208,1.687-2.418,3.457-3.596,5.258c-0.585,0.874-1.129,1.736-1.584,2.464c-0.465,0.734-0.955,1.511-1.377,2.232l-1.137,1.9
			l-1.567,2.773l0.31,0.203l1.905-2.54l1.366-1.729c0.469-0.604,0.993-1.242,1.637-2.016c0.537-0.655,1.179-1.429,1.867-2.215
			c1.381-1.611,2.79-3.19,4.191-4.691c2.558-2.769,5.566-5.815,8.252-8.358c1.188-1.133,2.179-2.037,2.92-2.708l8.383,1.571
			l0.685-1.954c2.52-7.188,7.857-17.145,11.324-17.145c0.045,0,0.101,0,0.111,0.003c0.013,0.011,0.043,0.057,0.108,0.214
			c1.422,3.434-2.168,14.176-4.587,18.477c-0.152,0.344-15.367,34.546-31.409,51.357c-3.628-3.621-19.859-20.97-19.975-41.445
			c0.134-0.078,0.315-0.148,0.519-0.132l0.094,0.005c1.709,0.066,3.538,1.998,5.434,5.737
			C203.325,415.911,204.806,417.415,206.401,416.71z M427.298,711.275l0.549-25.221c1.446-0.188,2.901-0.386,4.371-0.594
			l4.708,17.657l0.055,0.209l2.574-1.126c0.349-0.151,34.987-14.783,57.502,7.388L427.298,711.275z"/>
		<path id="XMLID_99_" style="fill:#222222;" d="M368.78,352.86c-0.788-0.308-1.689-0.681-2.705-0.932
			c-1.012-0.293-2.13-0.505-3.324-0.672c-0.597-0.066-1.213-0.128-1.844-0.168c-0.63-0.018-1.275-0.015-1.93,0.003
			c-0.652,0.062-1.316,0.105-1.981,0.206c-0.664,0.107-1.334,0.229-2.001,0.375c-1.335,0.301-2.676,0.629-3.998,0.999
			c-1.328,0.349-2.629,0.778-3.897,1.218c-1.266,0.447-2.486,0.95-3.645,1.473c-2.326,1.031-4.4,2.173-6.122,3.225
			c-3.464,2.079-5.491,3.852-5.491,3.852l0.257,0.364c0,0,0.567-0.329,1.605-0.84c1.039-0.503,2.516-1.228,4.343-1.959
			c0.909-0.373,1.908-0.743,2.967-1.113c1.065-0.354,2.177-0.745,3.35-1.074c1.166-0.345,2.385-0.643,3.617-0.941
			c1.238-0.277,2.496-0.54,3.763-0.722c1.263-0.202,2.539-0.295,3.788-0.345c0.624-0.03,1.244-0.01,1.85-0.044
			c0.608,0.004,1.205-0.02,1.792-0.039c0.586-0.009,1.162-0.028,1.726-0.07c0.563-0.013,1.116-0.043,1.656-0.081
			c1.087-0.036,2.114-0.07,3.063-0.101c0.961-0.048,1.84-0.016,2.644-0.063c0.4,0,0.774-0.001,1.12-0.001
			c0.349-0.004,0.68-0.035,0.97-0.024c1.171,0.006,1.886-0.056,1.886-0.056l0.135-0.424c0,0-0.557-0.429-1.613-1.064
			C370.227,353.53,369.559,353.22,368.78,352.86z"/>
		<path id="XMLID_98_" style="fill:#222222;" d="M406.149,361.951c0.29-0.01,0.621,0.02,0.97,0.025c0.346,0,0.72,0.001,1.12,0.001
			c0.803,0.047,1.683,0.015,2.644,0.063c0.948,0.031,1.976,0.065,3.062,0.101c0.541,0.038,1.093,0.068,1.657,0.081
			c0.564,0.042,1.14,0.061,1.726,0.07c0.587,0.019,1.184,0.043,1.792,0.039c0.606,0.034,1.226,0.014,1.85,0.044
			c1.248,0.051,2.524,0.144,3.788,0.345c1.267,0.182,2.525,0.445,3.763,0.722c1.232,0.298,2.451,0.595,3.617,0.941
			c1.173,0.328,2.284,0.72,3.35,1.074c1.059,0.37,2.057,0.74,2.967,1.113c1.827,0.731,3.304,1.457,4.343,1.959
			c1.038,0.51,1.604,0.84,1.604,0.84l0.257-0.364c0,0-2.027-1.773-5.491-3.852c-1.723-1.052-3.796-2.194-6.122-3.225
			c-1.159-0.524-2.379-1.026-3.645-1.473c-1.268-0.44-2.569-0.87-3.897-1.218c-1.322-0.37-2.663-0.699-3.998-0.999
			c-0.668-0.146-1.338-0.268-2.001-0.375c-0.665-0.102-1.329-0.144-1.981-0.206c-0.655-0.018-1.3-0.022-1.93-0.003
			c-0.631,0.04-1.247,0.102-1.844,0.168c-1.194,0.167-2.312,0.379-3.324,0.672c-1.016,0.251-1.917,0.624-2.705,0.932
			c-0.779,0.36-1.448,0.671-1.978,0.982c-1.056,0.635-1.614,1.064-1.614,1.064l0.135,0.424
			C404.263,361.895,404.979,361.957,406.149,361.951z"/>
		<path id="XMLID_91_" style="fill:#222222;" d="M478.114,464.834c-0.227,0.599-0.285,0.967-0.285,0.967s0.278-0.229,0.765-0.629
			c0.231-0.201,0.545-0.418,0.86-0.689c0.344-0.25,0.705-0.546,1.124-0.837c0.401-0.308,0.851-0.613,1.32-0.933
			c0.461-0.328,0.981-0.623,1.486-0.955c0.541-0.28,1.053-0.636,1.628-0.893c0.28-0.143,0.566-0.277,0.842-0.432l0.877-0.365
			c0.567-0.291,1.185-0.44,1.768-0.669c0.585-0.227,1.197-0.325,1.773-0.514c0.58-0.173,1.166-0.23,1.717-0.366
			c0.552-0.153,1.09-0.164,1.59-0.249c0.5-0.056,0.972-0.191,1.388-0.196c0.417-0.021,0.79-0.07,1.099-0.103
			c0.62-0.071,0.993-0.143,0.993-0.143s-0.314-0.18-0.895-0.44c-0.291-0.127-0.647-0.291-1.067-0.443
			c-0.415-0.188-0.906-0.268-1.445-0.395c-0.541-0.1-1.133-0.264-1.77-0.264c-0.635-0.011-1.32-0.087-2.017-0.002
			c-0.35,0.034-0.704,0.085-1.065,0.133c-0.362,0.042-0.727,0.095-1.081,0.21c-0.716,0.197-1.454,0.382-2.138,0.706l-1.032,0.464
			c-0.328,0.182-0.645,0.382-0.963,0.571c-0.321,0.185-0.63,0.382-0.91,0.613c-0.288,0.219-0.571,0.436-0.841,0.658
			c-0.517,0.471-1.012,0.93-1.423,1.417c-0.417,0.482-0.785,0.953-1.083,1.419c-0.319,0.447-0.541,0.911-0.754,1.298
			C478.375,464.174,478.222,464.531,478.114,464.834z"/>
		<path id="XMLID_88_" style="fill:#222222;" d="M324.231,565.348c-3.943,0-7.151,3.208-7.151,7.151
			c0,3.944,3.208,7.152,7.151,7.152c3.943,0,7.151-3.208,7.151-7.152C331.382,568.556,328.174,565.348,324.231,565.348z
			 M324.231,575.198c-1.488,0-2.698-1.21-2.698-2.698c0-1.487,1.21-2.698,2.698-2.698c1.488,0,2.698,1.211,2.698,2.698
			C326.929,573.987,325.718,575.198,324.231,575.198z"/>
		<path id="XMLID_85_" style="fill:#222222;" d="M313.444,615.063c-3.943,0-7.151,3.208-7.151,7.151
			c0,3.944,3.208,7.152,7.151,7.152c3.943,0,7.151-3.208,7.151-7.152C320.595,618.271,317.387,615.063,313.444,615.063z
			 M313.444,624.912c-1.488,0-2.698-1.21-2.698-2.698c0-1.487,1.21-2.698,2.698-2.698c1.488,0,2.698,1.21,2.698,2.698
			C316.142,623.701,314.932,624.912,313.444,624.912z"/>
		<path id="XMLID_75_" style="fill:#222222;" d="M373.476,618.815c-3.943,0-7.151,3.208-7.151,7.151
			c0,3.943,3.208,7.151,7.151,7.151c3.943,0,7.151-3.208,7.151-7.151C380.627,622.023,377.419,618.815,373.476,618.815z
			 M373.476,628.664c-1.488,0-2.698-1.21-2.698-2.698s1.21-2.698,2.698-2.698c1.488,0,2.698,1.21,2.698,2.698
			S374.964,628.664,373.476,628.664z"/>
		<path id="XMLID_47_" style="fill:#222222;" d="M377.228,570.508c-3.943,0-7.151,3.208-7.151,7.151
			c0,3.943,3.208,7.151,7.151,7.151c3.943,0,7.151-3.208,7.151-7.151C384.379,573.716,381.171,570.508,377.228,570.508z
			 M377.228,580.356c-1.488,0-2.698-1.21-2.698-2.698s1.21-2.698,2.698-2.698c1.488,0,2.698,1.21,2.698,2.698
			S378.716,580.356,377.228,580.356z"/>
		<g id="XMLID_34_">
			<path id="XMLID_35_" style="fill:#222222;" d="M348.282,396.801c-4.21,0-7.385,4.99-7.385,11.607s3.175,11.606,7.385,11.606
				c4.211,0,7.386-4.99,7.386-11.606S352.492,396.801,348.282,396.801z"/>
			<path id="XMLID_36_" style="fill:#222222;" d="M429.888,404.305c-4.211,0-7.386,4.99-7.386,11.607s3.175,11.606,7.386,11.606
				c4.21,0,7.385-4.99,7.385-11.606S434.099,404.305,429.888,404.305z"/>
		</g>
	</g>
</g>
</svg>
